<svg xmlns="http://www.w3.org/2000/svg" xmlns:xlink="http://www.w3.org/1999/xlink" width="1080" zoomAndPan="magnify" viewBox="0 0 810 1439.999935" height="1920" preserveAspectRatio="xMidYMid meet" version="1.0"><defs><clipPath id="01caaebc49"><path d="M 402.074219 432 L 408 432 L 408 1003 L 402.074219 1003 Z M 402.074219 432 " clip-rule="nonzero"/></clipPath><clipPath id="15c9d7648c"><path d="M 369.179688 432 L 441.179688 432 L 441.179688 504 L 369.179688 504 Z M 369.179688 432 " clip-rule="nonzero"/></clipPath><clipPath id="3afac1c756"><path d="M 369.179688 684 L 441.179688 684 L 441.179688 756 L 369.179688 756 Z M 369.179688 684 " clip-rule="nonzero"/></clipPath><clipPath id="c02d56aaa5"><path d="M 369.179688 936 L 441.179688 936 L 441.179688 1008 L 369.179688 1008 Z M 369.179688 936 " clip-rule="nonzero"/></clipPath></defs><rect x="-81" width="972" fill="#ffffff" y="-143.999994" height="1727.999922" fill-opacity="1"/><rect x="-81" width="972" fill="#ffffff" y="-143.999994" height="1727.999922" fill-opacity="1"/><g clip-path="url(#01caaebc49)"><path fill="#344054" d="M 407.324219 432.003906 L 407.324219 440.773438 L 402.824219 440.773438 L 402.824219 432.003906 M 407.324219 449.546875 L 407.324219 458.316406 L 402.824219 458.316406 L 402.824219 449.546875 M 407.324219 467.089844 L 407.324219 475.859375 L 402.824219 475.859375 L 402.824219 467.089844 M 407.324219 484.632812 L 407.324219 493.402344 L 402.824219 493.402344 L 402.824219 484.632812 M 407.324219 502.175781 L 407.324219 510.945312 L 402.824219 510.945312 L 402.824219 502.175781 M 407.324219 519.71875 L 407.324219 528.488281 L 402.824219 528.488281 L 402.824219 519.71875 M 407.324219 537.261719 L 407.324219 546.03125 L 402.824219 546.03125 L 402.824219 537.261719 M 407.324219 554.804688 L 407.324219 563.574219 L 402.824219 563.574219 L 402.824219 554.804688 M 407.324219 572.347656 L 407.324219 581.117188 L 402.824219 581.117188 L 402.824219 572.347656 M 407.324219 589.890625 L 407.324219 598.660156 L 402.824219 598.660156 L 402.824219 589.890625 M 407.324219 607.433594 L 407.324219 616.203125 L 402.824219 616.203125 L 402.824219 607.433594 M 407.324219 624.976562 L 407.324219 633.746094 L 402.824219 633.746094 L 402.824219 624.976562 M 407.324219 642.519531 L 407.324219 651.289062 L 402.824219 651.289062 L 402.824219 642.519531 M 407.324219 660.0625 L 407.324219 668.832031 L 402.824219 668.832031 L 402.824219 660.0625 M 407.324219 677.605469 L 407.324219 686.375 L 402.824219 686.375 L 402.824219 677.605469 M 407.324219 695.148438 L 407.324219 703.917969 L 402.824219 703.917969 L 402.824219 695.148438 M 407.324219 712.691406 L 407.324219 721.460938 L 402.824219 721.460938 L 402.824219 712.691406 M 407.324219 730.234375 L 407.324219 739.003906 L 402.824219 739.003906 L 402.824219 730.234375 M 407.324219 747.777344 L 407.324219 756.546875 L 402.824219 756.546875 L 402.824219 747.777344 M 407.324219 765.320312 L 407.324219 774.089844 L 402.824219 774.089844 L 402.824219 765.320312 M 407.324219 782.863281 L 407.324219 791.632812 L 402.824219 791.632812 L 402.824219 782.863281 M 407.324219 800.40625 L 407.324219 809.175781 L 402.824219 809.175781 L 402.824219 800.40625 M 407.324219 817.949219 L 407.324219 826.71875 L 402.824219 826.71875 L 402.824219 817.949219 M 407.324219 835.492188 L 407.324219 844.261719 L 402.824219 844.261719 L 402.824219 835.492188 M 407.324219 853.035156 L 407.324219 861.804688 L 402.824219 861.804688 L 402.824219 853.035156 M 407.324219 870.578125 L 407.324219 879.347656 L 402.824219 879.347656 L 402.824219 870.578125 M 407.324219 888.121094 L 407.324219 896.890625 L 402.824219 896.890625 L 402.824219 888.121094 M 407.324219 905.664062 L 407.324219 914.433594 L 402.824219 914.433594 L 402.824219 905.664062 M 407.324219 923.207031 L 407.324219 931.976562 L 402.824219 931.976562 L 402.824219 923.207031 M 407.324219 940.75 L 407.324219 949.519531 L 402.824219 949.519531 L 402.824219 940.75 M 407.324219 958.292969 L 407.324219 967.0625 L 402.824219 967.0625 L 402.824219 958.292969 M 407.324219 975.835938 L 407.324219 984.605469 L 402.824219 984.605469 L 402.824219 975.835938 M 407.324219 993.378906 L 407.324219 1002.148438 L 402.824219 1002.148438 L 402.824219 993.378906 " fill-opacity="1" fill-rule="nonzero"/></g><path fill="#ffffff" d="M 405.179688 433.453125 C 406.3125 433.453125 407.441406 433.507812 408.566406 433.617188 C 409.691406 433.730469 410.8125 433.894531 411.921875 434.113281 C 413.03125 434.332031 414.128906 434.605469 415.210938 434.933594 C 416.292969 435.261719 417.359375 435.640625 418.40625 436.070312 C 419.449219 436.5 420.472656 436.980469 421.46875 437.511719 C 422.46875 438.042969 423.4375 438.621094 424.378906 439.25 C 425.320312 439.875 426.230469 440.542969 427.105469 441.257812 C 427.980469 441.972656 428.816406 442.726562 429.617188 443.523438 C 430.417969 444.320312 431.175781 445.152344 431.894531 446.023438 C 432.613281 446.894531 433.285156 447.796875 433.914062 448.734375 C 434.542969 449.671875 435.125 450.636719 435.660156 451.628906 C 436.191406 452.621094 436.675781 453.640625 437.109375 454.679688 C 437.542969 455.71875 437.921875 456.78125 438.25 457.855469 C 438.578125 458.933594 438.855469 460.027344 439.074219 461.128906 C 439.296875 462.234375 439.460938 463.347656 439.574219 464.46875 C 439.683594 465.589844 439.738281 466.710938 439.738281 467.839844 C 439.738281 468.964844 439.683594 470.089844 439.574219 471.210938 C 439.460938 472.328125 439.296875 473.441406 439.074219 474.546875 C 438.855469 475.652344 438.578125 476.742188 438.25 477.820312 C 437.921875 478.898438 437.542969 479.957031 437.109375 480.996094 C 436.675781 482.039062 436.191406 483.054688 435.660156 484.046875 C 435.125 485.042969 434.542969 486.007812 433.914062 486.941406 C 433.285156 487.878906 432.613281 488.78125 431.894531 489.652344 C 431.175781 490.523438 430.417969 491.355469 429.617188 492.152344 C 428.816406 492.949219 427.980469 493.703125 427.105469 494.417969 C 426.230469 495.132812 425.320312 495.804688 424.378906 496.429688 C 423.4375 497.054688 422.46875 497.632812 421.46875 498.164062 C 420.472656 498.695312 419.449219 499.175781 418.40625 499.605469 C 417.359375 500.039062 416.292969 500.417969 415.210938 500.742188 C 414.128906 501.070312 413.03125 501.34375 411.921875 501.5625 C 410.8125 501.785156 409.691406 501.949219 408.566406 502.058594 C 407.441406 502.167969 406.3125 502.222656 405.179688 502.222656 C 404.046875 502.222656 402.917969 502.167969 401.792969 502.058594 C 400.664062 501.949219 399.546875 501.785156 398.4375 501.5625 C 397.328125 501.34375 396.230469 501.070312 395.148438 500.742188 C 394.0625 500.417969 393 500.039062 391.953125 499.605469 C 390.90625 499.175781 389.886719 498.695312 388.886719 498.164062 C 387.890625 497.632812 386.917969 497.054688 385.980469 496.429688 C 385.039062 495.804688 384.128906 495.132812 383.253906 494.417969 C 382.378906 493.703125 381.542969 492.949219 380.742188 492.152344 C 379.941406 491.355469 379.183594 490.523438 378.464844 489.652344 C 377.746094 488.78125 377.074219 487.878906 376.445312 486.941406 C 375.816406 486.007812 375.234375 485.042969 374.699219 484.046875 C 374.167969 483.054688 373.683594 482.039062 373.25 480.996094 C 372.816406 479.957031 372.4375 478.898438 372.105469 477.820312 C 371.777344 476.742188 371.503906 475.652344 371.28125 474.546875 C 371.0625 473.441406 370.894531 472.328125 370.785156 471.210938 C 370.675781 470.089844 370.617188 468.964844 370.617188 467.839844 C 370.617188 466.710938 370.675781 465.589844 370.785156 464.46875 C 370.894531 463.347656 371.0625 462.234375 371.28125 461.128906 C 371.503906 460.027344 371.777344 458.933594 372.105469 457.855469 C 372.4375 456.78125 372.816406 455.71875 373.25 454.679688 C 373.683594 453.640625 374.167969 452.621094 374.699219 451.628906 C 375.234375 450.636719 375.816406 449.671875 376.445312 448.734375 C 377.074219 447.796875 377.746094 446.894531 378.464844 446.023438 C 379.183594 445.152344 379.941406 444.320312 380.742188 443.523438 C 381.542969 442.726562 382.378906 441.972656 383.253906 441.257812 C 384.128906 440.542969 385.039062 439.875 385.980469 439.25 C 386.917969 438.621094 387.890625 438.042969 388.886719 437.511719 C 389.886719 436.980469 390.90625 436.5 391.953125 436.070312 C 393 435.640625 394.0625 435.261719 395.148438 434.933594 C 396.230469 434.605469 397.328125 434.332031 398.4375 434.113281 C 399.546875 433.894531 400.664062 433.730469 401.792969 433.617188 C 402.917969 433.507812 404.046875 433.453125 405.179688 433.453125 Z M 405.179688 433.453125 " fill-opacity="1" fill-rule="nonzero"/><g clip-path="url(#15c9d7648c)"><path fill="#1d2939" d="M 425.054688 437.972656 C 428.050781 439.949219 430.6875 442.3125 432.972656 445.070312 C 433.09375 445.21875 433.179688 445.382812 433.238281 445.566406 C 433.292969 445.746094 433.3125 445.933594 433.292969 446.121094 C 433.273438 446.308594 433.21875 446.488281 433.128906 446.65625 C 433.039062 446.824219 432.921875 446.96875 432.773438 447.089844 C 432.628906 447.210938 432.460938 447.296875 432.28125 447.351562 C 432.097656 447.410156 431.910156 447.425781 431.722656 447.410156 C 431.53125 447.390625 431.351562 447.335938 431.183594 447.246094 C 431.015625 447.15625 430.871094 447.039062 430.746094 446.894531 C 428.648438 444.355469 426.21875 442.179688 423.464844 440.363281 C 423.304688 440.257812 423.171875 440.128906 423.066406 439.96875 C 422.960938 439.8125 422.886719 439.640625 422.847656 439.453125 C 422.8125 439.269531 422.808594 439.082031 422.847656 438.894531 C 422.882812 438.707031 422.953125 438.535156 423.058594 438.378906 C 423.164062 438.21875 423.296875 438.085938 423.453125 437.980469 C 423.613281 437.875 423.785156 437.800781 423.972656 437.765625 C 424.160156 437.726562 424.347656 437.726562 424.535156 437.761719 C 424.722656 437.796875 424.894531 437.871094 425.054688 437.972656 Z M 438.394531 454.027344 C 439.78125 457.328125 440.652344 460.757812 441.003906 464.316406 C 441.023438 464.507812 441.003906 464.691406 440.949219 464.875 C 440.894531 465.054688 440.804688 465.21875 440.683594 465.367188 C 440.5625 465.515625 440.417969 465.632812 440.25 465.722656 C 440.082031 465.8125 439.902344 465.867188 439.714844 465.882812 C 439.523438 465.902344 439.335938 465.886719 439.152344 465.832031 C 438.972656 465.773438 438.804688 465.6875 438.660156 465.566406 C 438.511719 465.445312 438.390625 465.300781 438.300781 465.132812 C 438.210938 464.96875 438.15625 464.789062 438.140625 464.601562 C 437.8125 461.324219 437.011719 458.167969 435.738281 455.132812 C 435.664062 454.957031 435.625 454.773438 435.625 454.582031 C 435.625 454.394531 435.660156 454.210938 435.734375 454.035156 C 435.804688 453.859375 435.910156 453.703125 436.042969 453.570312 C 436.179688 453.433594 436.335938 453.332031 436.511719 453.257812 C 436.6875 453.183594 436.871094 453.148438 437.0625 453.144531 C 437.253906 453.144531 437.4375 453.179688 437.613281 453.253906 C 437.789062 453.324219 437.945312 453.429688 438.082031 453.5625 C 438.214844 453.695312 438.320312 453.851562 438.394531 454.027344 Z M 440.566406 474.425781 C 439.90625 477.9375 438.742188 481.277344 437.078125 484.445312 C 436.988281 484.613281 436.871094 484.757812 436.722656 484.878906 C 436.578125 485 436.414062 485.089844 436.230469 485.148438 C 436.046875 485.203125 435.863281 485.222656 435.671875 485.207031 C 435.480469 485.191406 435.300781 485.136719 435.132812 485.050781 C 434.964844 484.960938 434.816406 484.84375 434.695312 484.699219 C 434.574219 484.550781 434.484375 484.390625 434.425781 484.207031 C 434.371094 484.027344 434.347656 483.839844 434.367188 483.652344 C 434.382812 483.460938 434.4375 483.285156 434.523438 483.117188 C 436.058594 480.203125 437.125 477.128906 437.734375 473.898438 C 437.769531 473.710938 437.839844 473.539062 437.941406 473.378906 C 438.046875 473.222656 438.179688 473.085938 438.335938 472.980469 C 438.492188 472.871094 438.664062 472.800781 438.851562 472.761719 C 439.039062 472.722656 439.226562 472.71875 439.414062 472.753906 C 439.601562 472.789062 439.777344 472.859375 439.9375 472.960938 C 440.097656 473.066406 440.230469 473.195312 440.335938 473.351562 C 440.445312 473.507812 440.519531 473.679688 440.558594 473.867188 C 440.597656 474.054688 440.601562 474.238281 440.566406 474.425781 Z M 430.832031 492.964844 C 428.324219 495.503906 425.5 497.621094 422.355469 499.316406 C 422.1875 499.40625 422.007812 499.460938 421.820312 499.484375 C 421.628906 499.503906 421.441406 499.484375 421.261719 499.429688 C 421.078125 499.378906 420.910156 499.289062 420.761719 499.171875 C 420.613281 499.050781 420.496094 498.910156 420.402344 498.742188 C 420.3125 498.574219 420.257812 498.398438 420.238281 498.207031 C 420.214844 498.019531 420.234375 497.832031 420.289062 497.652344 C 420.34375 497.46875 420.429688 497.304688 420.550781 497.15625 C 420.667969 497.007812 420.8125 496.890625 420.980469 496.796875 C 423.875 495.238281 426.472656 493.289062 428.78125 490.957031 C 428.914062 490.820312 429.070312 490.714844 429.246094 490.640625 C 429.421875 490.566406 429.605469 490.53125 429.796875 490.527344 C 429.988281 490.527344 430.171875 490.5625 430.347656 490.632812 C 430.523438 490.703125 430.683594 490.808594 430.816406 490.941406 C 430.953125 491.074219 431.058594 491.226562 431.132812 491.402344 C 431.207031 491.578125 431.246094 491.761719 431.246094 491.949219 C 431.25 492.140625 431.214844 492.324219 431.140625 492.5 C 431.070312 492.675781 430.96875 492.832031 430.832031 492.964844 Z M 412.347656 502.941406 C 409.984375 503.417969 407.59375 503.65625 405.179688 503.65625 C 404.175781 503.65625 403.175781 503.617188 402.179688 503.53125 C 401.988281 503.515625 401.808594 503.464844 401.640625 503.378906 C 401.46875 503.289062 401.324219 503.175781 401.199219 503.03125 C 401.074219 502.882812 400.984375 502.722656 400.925781 502.539062 C 400.867188 502.359375 400.847656 502.175781 400.863281 501.984375 C 400.878906 501.796875 400.929688 501.617188 401.019531 501.449219 C 401.105469 501.277344 401.222656 501.132812 401.367188 501.011719 C 401.515625 500.886719 401.679688 500.796875 401.859375 500.738281 C 402.042969 500.683594 402.226562 500.660156 402.417969 500.675781 C 403.335938 500.753906 404.257812 500.792969 405.179688 500.792969 C 407.398438 500.792969 409.597656 500.570312 411.773438 500.132812 C 411.960938 500.09375 412.148438 500.09375 412.335938 500.128906 C 412.523438 500.164062 412.699219 500.234375 412.855469 500.339844 C 413.015625 500.445312 413.148438 500.578125 413.253906 500.734375 C 413.363281 500.890625 413.433594 501.0625 413.472656 501.25 C 413.511719 501.4375 413.511719 501.621094 413.476562 501.808594 C 413.4375 501.996094 413.367188 502.167969 413.261719 502.328125 C 413.15625 502.484375 413.023438 502.617188 412.867188 502.722656 C 412.707031 502.828125 412.535156 502.902344 412.347656 502.941406 Z M 391.800781 501.089844 C 388.519531 499.785156 385.496094 498.035156 382.734375 495.84375 C 382.585938 495.726562 382.464844 495.582031 382.371094 495.417969 C 382.28125 495.25 382.222656 495.074219 382.203125 494.882812 C 382.179688 494.695312 382.195312 494.507812 382.25 494.328125 C 382.300781 494.144531 382.386719 493.980469 382.507812 493.828125 C 382.625 493.679688 382.769531 493.5625 382.9375 493.46875 C 383.101562 493.378906 383.28125 493.320312 383.472656 493.300781 C 383.660156 493.277344 383.847656 493.292969 384.03125 493.347656 C 384.214844 493.398438 384.378906 493.484375 384.53125 493.601562 C 387.070312 495.621094 389.851562 497.230469 392.871094 498.429688 C 393.046875 498.5 393.203125 498.601562 393.339844 498.734375 C 393.476562 498.867188 393.582031 499.023438 393.65625 499.195312 C 393.734375 499.371094 393.773438 499.554688 393.773438 499.742188 C 393.777344 499.933594 393.742188 500.117188 393.671875 500.292969 C 393.601562 500.46875 393.5 500.625 393.363281 500.761719 C 393.230469 500.898438 393.078125 501.003906 392.902344 501.078125 C 392.726562 501.152344 392.542969 501.191406 392.351562 501.195312 C 392.160156 501.195312 391.976562 501.160156 391.800781 501.089844 Z M 375.476562 488.074219 C 373.464844 485.152344 371.921875 482 370.847656 478.621094 C 370.792969 478.4375 370.769531 478.253906 370.789062 478.066406 C 370.804688 477.875 370.855469 477.695312 370.945312 477.527344 C 371.03125 477.359375 371.148438 477.214844 371.296875 477.09375 C 371.441406 476.96875 371.605469 476.878906 371.789062 476.824219 C 371.96875 476.765625 372.15625 476.746094 372.347656 476.761719 C 372.539062 476.777344 372.71875 476.832031 372.886719 476.917969 C 373.054688 477.003906 373.203125 477.121094 373.324219 477.269531 C 373.449219 477.414062 373.539062 477.578125 373.59375 477.757812 C 374.582031 480.867188 376 483.765625 377.851562 486.457031 C 377.960938 486.613281 378.035156 486.785156 378.074219 486.972656 C 378.113281 487.15625 378.113281 487.34375 378.078125 487.53125 C 378.042969 487.714844 377.972656 487.890625 377.871094 488.046875 C 377.765625 488.207031 377.636719 488.339844 377.476562 488.449219 C 377.320312 488.554688 377.148438 488.628906 376.960938 488.667969 C 376.773438 488.707031 376.585938 488.710938 376.398438 488.675781 C 376.210938 488.640625 376.039062 488.570312 375.878906 488.464844 C 375.71875 488.363281 375.582031 488.234375 375.476562 488.074219 Z M 369.183594 468.359375 C 369.179688 468.1875 369.179688 468.011719 369.179688 467.839844 C 369.179688 464.546875 369.625 461.320312 370.519531 458.152344 C 370.570312 457.96875 370.65625 457.804688 370.773438 457.652344 C 370.894531 457.503906 371.035156 457.382812 371.203125 457.289062 C 371.367188 457.195312 371.546875 457.140625 371.734375 457.117188 C 371.925781 457.09375 372.113281 457.109375 372.296875 457.160156 C 372.480469 457.210938 372.648438 457.296875 372.796875 457.414062 C 372.949219 457.53125 373.070312 457.671875 373.164062 457.839844 C 373.257812 458.003906 373.3125 458.179688 373.335938 458.371094 C 373.359375 458.558594 373.34375 458.742188 373.292969 458.925781 C 372.46875 461.839844 372.058594 464.8125 372.058594 467.839844 C 372.058594 468 372.058594 468.15625 372.0625 468.316406 C 372.066406 468.507812 372.03125 468.691406 371.960938 468.867188 C 371.890625 469.042969 371.789062 469.199219 371.65625 469.335938 C 371.523438 469.472656 371.367188 469.578125 371.191406 469.652344 C 371.019531 469.730469 370.835938 469.769531 370.644531 469.769531 C 370.453125 469.773438 370.269531 469.738281 370.089844 469.667969 C 369.914062 469.601562 369.757812 469.5 369.621094 469.367188 C 369.484375 469.234375 369.375 469.082031 369.300781 468.90625 C 369.226562 468.730469 369.1875 468.550781 369.183594 468.359375 Z M 374.859375 448.527344 C 376.792969 445.519531 379.128906 442.859375 381.863281 440.546875 C 382.011719 440.421875 382.175781 440.332031 382.355469 440.273438 C 382.539062 440.214844 382.722656 440.195312 382.914062 440.210938 C 383.105469 440.226562 383.285156 440.277344 383.453125 440.363281 C 383.625 440.449219 383.769531 440.566406 383.894531 440.710938 C 384.019531 440.855469 384.109375 441.019531 384.167969 441.199219 C 384.226562 441.378906 384.25 441.566406 384.234375 441.753906 C 384.21875 441.941406 384.164062 442.121094 384.078125 442.292969 C 383.992188 442.460938 383.875 442.605469 383.730469 442.730469 C 381.214844 444.859375 379.066406 447.304688 377.285156 450.074219 C 377.179688 450.234375 377.050781 450.367188 376.894531 450.476562 C 376.738281 450.585938 376.566406 450.660156 376.378906 450.699219 C 376.195312 450.742188 376.007812 450.746094 375.816406 450.710938 C 375.628906 450.679688 375.457031 450.609375 375.296875 450.507812 C 375.132812 450.40625 375 450.277344 374.890625 450.121094 C 374.78125 449.964844 374.707031 449.792969 374.664062 449.609375 C 374.625 449.421875 374.621094 449.238281 374.652344 449.050781 C 374.6875 448.863281 374.753906 448.6875 374.859375 448.527344 Z M 390.796875 435.003906 C 394.09375 433.574219 397.527344 432.65625 401.101562 432.25 C 401.289062 432.230469 401.476562 432.246094 401.660156 432.296875 C 401.84375 432.347656 402.011719 432.433594 402.160156 432.554688 C 402.308594 432.671875 402.429688 432.8125 402.523438 432.980469 C 402.617188 433.144531 402.671875 433.324219 402.695312 433.511719 C 402.714844 433.699219 402.699219 433.886719 402.648438 434.070312 C 402.59375 434.25 402.507812 434.417969 402.390625 434.566406 C 402.273438 434.714844 402.128906 434.835938 401.960938 434.925781 C 401.792969 435.019531 401.617188 435.078125 401.425781 435.097656 C 398.140625 435.472656 394.980469 436.316406 391.945312 437.628906 C 391.773438 437.707031 391.589844 437.746094 391.398438 437.75 C 391.207031 437.753906 391.023438 437.71875 390.84375 437.648438 C 390.667969 437.582031 390.511719 437.480469 390.371094 437.347656 C 390.234375 437.214844 390.128906 437.0625 390.050781 436.890625 C 389.976562 436.714844 389.9375 436.53125 389.933594 436.34375 C 389.929688 436.152344 389.960938 435.96875 390.03125 435.792969 C 390.101562 435.617188 390.203125 435.457031 390.335938 435.320312 C 390.46875 435.183594 390.621094 435.078125 390.796875 435.003906 Z M 405.179688 432.019531 C 408.679688 432.019531 412.109375 432.519531 415.464844 433.511719 C 415.648438 433.566406 415.8125 433.65625 415.960938 433.773438 C 416.109375 433.894531 416.230469 434.039062 416.320312 434.207031 C 416.410156 434.371094 416.464844 434.550781 416.488281 434.738281 C 416.507812 434.929688 416.488281 435.113281 416.433594 435.296875 C 416.378906 435.476562 416.292969 435.644531 416.171875 435.789062 C 416.050781 435.9375 415.90625 436.054688 415.738281 436.148438 C 415.570312 436.238281 415.390625 436.292969 415.203125 436.3125 C 415.011719 436.332031 414.824219 436.3125 414.640625 436.257812 C 411.554688 435.34375 408.402344 434.886719 405.179688 434.886719 C 404.988281 434.886719 404.804688 434.847656 404.628906 434.777344 C 404.453125 434.703125 404.296875 434.601562 404.160156 434.464844 C 404.027344 434.332031 403.921875 434.175781 403.847656 434 C 403.777344 433.824219 403.738281 433.644531 403.738281 433.453125 C 403.738281 433.261719 403.777344 433.082031 403.847656 432.90625 C 403.921875 432.730469 404.027344 432.574219 404.160156 432.441406 C 404.296875 432.304688 404.453125 432.203125 404.628906 432.128906 C 404.804688 432.058594 404.988281 432.019531 405.179688 432.019531 Z M 405.179688 432.019531 " fill-opacity="1" fill-rule="nonzero"/></g><path fill="#fd853a" d="M 431.097656 467.839844 C 431.097656 468.683594 431.058594 469.527344 430.972656 470.367188 C 430.890625 471.207031 430.765625 472.042969 430.601562 472.871094 C 430.433594 473.699219 430.230469 474.515625 429.984375 475.324219 C 429.738281 476.132812 429.449219 476.925781 429.125 477.707031 C 428.800781 478.488281 428.4375 479.25 428.039062 479.996094 C 427.636719 480.742188 427.203125 481.464844 426.730469 482.167969 C 426.257812 482.867188 425.753906 483.546875 425.214844 484.199219 C 424.675781 484.851562 424.109375 485.476562 423.507812 486.074219 C 422.90625 486.671875 422.277344 487.238281 421.621094 487.773438 C 420.964844 488.308594 420.285156 488.8125 419.578125 489.28125 C 418.875 489.75 418.144531 490.183594 417.398438 490.582031 C 416.648438 490.980469 415.882812 491.339844 415.097656 491.664062 C 414.3125 491.988281 413.515625 492.273438 412.703125 492.515625 C 411.890625 492.761719 411.070312 492.96875 410.234375 493.132812 C 409.402344 493.296875 408.566406 493.421875 407.71875 493.503906 C 406.875 493.585938 406.027344 493.628906 405.179688 493.628906 C 404.332031 493.628906 403.484375 493.585938 402.636719 493.503906 C 401.792969 493.421875 400.953125 493.296875 400.121094 493.132812 C 399.289062 492.96875 398.46875 492.761719 397.65625 492.515625 C 396.84375 492.273438 396.042969 491.988281 395.261719 491.664062 C 394.476562 491.339844 393.710938 490.980469 392.960938 490.582031 C 392.210938 490.183594 391.484375 489.75 390.777344 489.28125 C 390.074219 488.8125 389.390625 488.308594 388.734375 487.773438 C 388.078125 487.238281 387.449219 486.671875 386.851562 486.074219 C 386.25 485.476562 385.679688 484.851562 385.144531 484.199219 C 384.605469 483.546875 384.097656 482.867188 383.628906 482.167969 C 383.15625 481.464844 382.71875 480.742188 382.320312 479.996094 C 381.917969 479.25 381.558594 478.488281 381.230469 477.707031 C 380.90625 476.925781 380.621094 476.132812 380.375 475.324219 C 380.128906 474.515625 379.921875 473.699219 379.757812 472.871094 C 379.589844 472.042969 379.46875 471.207031 379.382812 470.367188 C 379.300781 469.527344 379.257812 468.683594 379.257812 467.839844 C 379.257812 466.992188 379.300781 466.152344 379.382812 465.3125 C 379.46875 464.46875 379.589844 463.636719 379.757812 462.808594 C 379.921875 461.980469 380.128906 461.160156 380.375 460.351562 C 380.621094 459.542969 380.90625 458.75 381.230469 457.96875 C 381.558594 457.1875 381.917969 456.425781 382.320312 455.683594 C 382.71875 454.9375 383.15625 454.214844 383.628906 453.511719 C 384.097656 452.808594 384.605469 452.132812 385.144531 451.476562 C 385.679688 450.824219 386.25 450.199219 386.851562 449.601562 C 387.449219 449.003906 388.078125 448.4375 388.734375 447.902344 C 389.390625 447.367188 390.074219 446.863281 390.777344 446.394531 C 391.484375 445.925781 392.210938 445.492188 392.960938 445.09375 C 393.710938 444.695312 394.476562 444.335938 395.261719 444.011719 C 396.042969 443.6875 396.84375 443.40625 397.65625 443.160156 C 398.46875 442.914062 399.289062 442.710938 400.121094 442.546875 C 400.953125 442.378906 401.792969 442.257812 402.636719 442.171875 C 403.484375 442.089844 404.332031 442.050781 405.179688 442.050781 C 406.027344 442.050781 406.875 442.089844 407.71875 442.171875 C 408.566406 442.257812 409.402344 442.378906 410.234375 442.546875 C 411.070312 442.710938 411.890625 442.914062 412.703125 443.160156 C 413.515625 443.40625 414.3125 443.6875 415.097656 444.011719 C 415.882812 444.335938 416.648438 444.695312 417.398438 445.09375 C 418.144531 445.492188 418.875 445.925781 419.578125 446.394531 C 420.285156 446.863281 420.964844 447.367188 421.621094 447.902344 C 422.277344 448.4375 422.90625 449.003906 423.507812 449.601562 C 424.109375 450.199219 424.675781 450.824219 425.214844 451.476562 C 425.753906 452.132812 426.257812 452.808594 426.730469 453.511719 C 427.203125 454.214844 427.636719 454.9375 428.039062 455.683594 C 428.4375 456.425781 428.800781 457.1875 429.125 457.96875 C 429.449219 458.75 429.738281 459.542969 429.984375 460.351562 C 430.230469 461.160156 430.433594 461.980469 430.601562 462.808594 C 430.765625 463.636719 430.890625 464.46875 430.972656 465.3125 C 431.058594 466.152344 431.097656 466.992188 431.097656 467.839844 Z M 431.097656 467.839844 " fill-opacity="1" fill-rule="nonzero"/><path fill="#ffffff" d="M 405.179688 685.613281 C 406.3125 685.613281 407.441406 685.667969 408.566406 685.78125 C 409.691406 685.890625 410.8125 686.054688 411.921875 686.273438 C 413.03125 686.496094 414.128906 686.769531 415.210938 687.09375 C 416.292969 687.421875 417.359375 687.800781 418.40625 688.230469 C 419.449219 688.664062 420.472656 689.144531 421.46875 689.675781 C 422.46875 690.207031 423.4375 690.785156 424.378906 691.410156 C 425.320312 692.035156 426.230469 692.703125 427.105469 693.417969 C 427.980469 694.132812 428.816406 694.890625 429.617188 695.6875 C 430.417969 696.480469 431.175781 697.316406 431.894531 698.1875 C 432.613281 699.054688 433.285156 699.960938 433.914062 700.894531 C 434.542969 701.832031 435.125 702.796875 435.660156 703.789062 C 436.191406 704.785156 436.675781 705.800781 437.109375 706.839844 C 437.542969 707.882812 437.921875 708.941406 438.25 710.019531 C 438.578125 711.097656 438.855469 712.1875 439.074219 713.292969 C 439.296875 714.394531 439.460938 715.507812 439.574219 716.628906 C 439.683594 717.75 439.738281 718.875 439.738281 720 C 439.738281 721.125 439.683594 722.25 439.574219 723.371094 C 439.460938 724.492188 439.296875 725.605469 439.074219 726.707031 C 438.855469 727.8125 438.578125 728.902344 438.25 729.980469 C 437.921875 731.058594 437.542969 732.117188 437.109375 733.160156 C 436.675781 734.199219 436.191406 735.214844 435.660156 736.210938 C 435.125 737.203125 434.542969 738.167969 433.914062 739.101562 C 433.285156 740.039062 432.613281 740.945312 431.894531 741.8125 C 431.175781 742.683594 430.417969 743.519531 429.617188 744.3125 C 428.816406 745.109375 427.980469 745.867188 427.105469 746.582031 C 426.230469 747.292969 425.320312 747.964844 424.378906 748.589844 C 423.4375 749.214844 422.46875 749.792969 421.46875 750.324219 C 420.472656 750.855469 419.449219 751.335938 418.40625 751.769531 C 417.359375 752.199219 416.292969 752.578125 415.210938 752.90625 C 414.128906 753.230469 413.03125 753.503906 411.921875 753.726562 C 410.8125 753.945312 409.691406 754.109375 408.566406 754.21875 C 407.441406 754.332031 406.3125 754.386719 405.179688 754.386719 C 404.046875 754.386719 402.917969 754.332031 401.792969 754.21875 C 400.664062 754.109375 399.546875 753.945312 398.4375 753.726562 C 397.328125 753.503906 396.230469 753.230469 395.148438 752.90625 C 394.0625 752.578125 393 752.199219 391.953125 751.769531 C 390.90625 751.335938 389.886719 750.855469 388.886719 750.324219 C 387.890625 749.792969 386.917969 749.214844 385.980469 748.589844 C 385.039062 747.964844 384.128906 747.292969 383.253906 746.582031 C 382.378906 745.867188 381.542969 745.109375 380.742188 744.3125 C 379.941406 743.519531 379.183594 742.683594 378.464844 741.8125 C 377.746094 740.945312 377.074219 740.039062 376.445312 739.105469 C 375.816406 738.167969 375.234375 737.203125 374.699219 736.210938 C 374.167969 735.214844 373.683594 734.199219 373.25 733.160156 C 372.816406 732.117188 372.4375 731.058594 372.105469 729.980469 C 371.777344 728.902344 371.503906 727.8125 371.28125 726.707031 C 371.0625 725.605469 370.894531 724.492188 370.785156 723.371094 C 370.675781 722.25 370.617188 721.125 370.617188 720 C 370.617188 718.875 370.675781 717.75 370.785156 716.628906 C 370.894531 715.507812 371.0625 714.394531 371.28125 713.292969 C 371.503906 712.1875 371.777344 711.097656 372.105469 710.019531 C 372.4375 708.941406 372.816406 707.882812 373.25 706.839844 C 373.683594 705.800781 374.167969 704.785156 374.699219 703.789062 C 375.234375 702.796875 375.816406 701.832031 376.445312 700.894531 C 377.074219 699.960938 377.746094 699.054688 378.464844 698.1875 C 379.183594 697.316406 379.941406 696.480469 380.742188 695.6875 C 381.542969 694.890625 382.378906 694.132812 383.253906 693.417969 C 384.128906 692.703125 385.039062 692.035156 385.980469 691.410156 C 386.917969 690.785156 387.890625 690.207031 388.886719 689.675781 C 389.886719 689.144531 390.90625 688.664062 391.953125 688.230469 C 393 687.800781 394.0625 687.421875 395.148438 687.09375 C 396.230469 686.769531 397.328125 686.496094 398.4375 686.273438 C 399.546875 686.054688 400.664062 685.890625 401.792969 685.78125 C 402.917969 685.667969 404.046875 685.613281 405.179688 685.613281 Z M 405.179688 685.613281 " fill-opacity="1" fill-rule="nonzero"/><g clip-path="url(#3afac1c756)"><path fill="#1d2939" d="M 425.054688 690.136719 C 428.050781 692.109375 430.6875 694.472656 432.972656 697.234375 C 433.09375 697.378906 433.179688 697.542969 433.238281 697.726562 C 433.292969 697.90625 433.3125 698.09375 433.292969 698.28125 C 433.273438 698.472656 433.21875 698.648438 433.128906 698.816406 C 433.039062 698.984375 432.921875 699.128906 432.773438 699.25 C 432.628906 699.371094 432.460938 699.457031 432.28125 699.515625 C 432.097656 699.570312 431.910156 699.589844 431.722656 699.570312 C 431.53125 699.550781 431.351562 699.496094 431.183594 699.410156 C 431.015625 699.320312 430.871094 699.203125 430.746094 699.054688 C 428.648438 696.515625 426.21875 694.339844 423.464844 692.523438 C 423.304688 692.417969 423.171875 692.289062 423.066406 692.132812 C 422.960938 691.972656 422.886719 691.800781 422.847656 691.617188 C 422.8125 691.429688 422.808594 691.242188 422.847656 691.054688 C 422.882812 690.871094 422.953125 690.699219 423.058594 690.539062 C 423.164062 690.378906 423.296875 690.25 423.453125 690.140625 C 423.613281 690.035156 423.785156 689.964844 423.972656 689.925781 C 424.160156 689.886719 424.347656 689.886719 424.535156 689.921875 C 424.722656 689.960938 424.894531 690.03125 425.054688 690.136719 Z M 438.394531 706.1875 C 439.78125 709.488281 440.652344 712.917969 441.003906 716.480469 C 441.023438 716.667969 441.003906 716.855469 440.949219 717.035156 C 440.894531 717.21875 440.804688 717.382812 440.683594 717.527344 C 440.5625 717.675781 440.417969 717.792969 440.25 717.882812 C 440.082031 717.972656 439.902344 718.027344 439.714844 718.046875 C 439.523438 718.066406 439.335938 718.046875 439.152344 717.992188 C 438.972656 717.9375 438.804688 717.847656 438.660156 717.726562 C 438.511719 717.605469 438.390625 717.464844 438.300781 717.296875 C 438.210938 717.128906 438.15625 716.949219 438.140625 716.761719 C 437.8125 713.484375 437.011719 710.328125 435.738281 707.292969 C 435.664062 707.117188 435.625 706.933594 435.625 706.746094 C 435.625 706.554688 435.660156 706.371094 435.734375 706.195312 C 435.804688 706.019531 435.910156 705.867188 436.042969 705.730469 C 436.179688 705.597656 436.335938 705.492188 436.511719 705.417969 C 436.6875 705.34375 436.871094 705.308594 437.0625 705.308594 C 437.253906 705.308594 437.4375 705.34375 437.613281 705.414062 C 437.789062 705.488281 437.945312 705.589844 438.082031 705.722656 C 438.214844 705.859375 438.320312 706.011719 438.394531 706.1875 Z M 440.566406 726.585938 C 439.90625 730.097656 438.742188 733.4375 437.078125 736.605469 C 436.988281 736.773438 436.871094 736.917969 436.722656 737.039062 C 436.578125 737.164062 436.414062 737.25 436.230469 737.308594 C 436.046875 737.363281 435.863281 737.386719 435.671875 737.367188 C 435.480469 737.351562 435.300781 737.296875 435.132812 737.210938 C 434.964844 737.121094 434.816406 737.003906 434.695312 736.859375 C 434.574219 736.714844 434.484375 736.550781 434.425781 736.367188 C 434.371094 736.1875 434.347656 736.003906 434.367188 735.8125 C 434.382812 735.625 434.4375 735.445312 434.523438 735.277344 C 436.058594 732.363281 437.125 729.292969 437.734375 726.058594 C 437.769531 725.875 437.839844 725.699219 437.941406 725.542969 C 438.046875 725.382812 438.179688 725.25 438.335938 725.140625 C 438.492188 725.035156 438.664062 724.960938 438.851562 724.921875 C 439.039062 724.882812 439.226562 724.878906 439.414062 724.914062 C 439.601562 724.949219 439.777344 725.019531 439.9375 725.125 C 440.097656 725.226562 440.230469 725.355469 440.335938 725.515625 C 440.445312 725.671875 440.519531 725.84375 440.558594 726.027344 C 440.597656 726.214844 440.601562 726.398438 440.566406 726.585938 Z M 430.832031 745.128906 C 428.324219 747.664062 425.5 749.78125 422.355469 751.476562 C 422.1875 751.570312 422.007812 751.625 421.820312 751.644531 C 421.628906 751.664062 421.441406 751.648438 421.261719 751.59375 C 421.078125 751.539062 420.910156 751.453125 420.761719 751.332031 C 420.613281 751.210938 420.496094 751.070312 420.402344 750.902344 C 420.3125 750.734375 420.257812 750.558594 420.238281 750.367188 C 420.214844 750.179688 420.234375 749.996094 420.289062 749.8125 C 420.34375 749.628906 420.429688 749.464844 420.550781 749.316406 C 420.671875 749.167969 420.8125 749.050781 420.980469 748.960938 C 423.875 747.398438 426.472656 745.449219 428.78125 743.117188 C 428.914062 742.980469 429.070312 742.878906 429.246094 742.804688 C 429.421875 742.730469 429.605469 742.691406 429.796875 742.691406 C 429.988281 742.6875 430.171875 742.722656 430.347656 742.792969 C 430.523438 742.867188 430.683594 742.96875 430.816406 743.101562 C 430.953125 743.234375 431.058594 743.390625 431.132812 743.5625 C 431.207031 743.738281 431.246094 743.921875 431.246094 744.113281 C 431.25 744.300781 431.214844 744.484375 431.140625 744.660156 C 431.070312 744.835938 430.96875 744.992188 430.832031 745.128906 Z M 412.347656 755.101562 C 409.984375 755.578125 407.59375 755.816406 405.179688 755.816406 C 404.175781 755.816406 403.175781 755.777344 402.179688 755.695312 C 401.988281 755.679688 401.808594 755.625 401.640625 755.539062 C 401.46875 755.453125 401.324219 755.335938 401.199219 755.191406 C 401.074219 755.046875 400.984375 754.882812 400.925781 754.703125 C 400.867188 754.519531 400.847656 754.335938 400.863281 754.148438 C 400.878906 753.957031 400.929688 753.777344 401.019531 753.609375 C 401.105469 753.441406 401.222656 753.292969 401.367188 753.171875 C 401.515625 753.050781 401.679688 752.957031 401.859375 752.902344 C 402.042969 752.84375 402.226562 752.824219 402.417969 752.839844 C 403.335938 752.914062 404.257812 752.953125 405.179688 752.953125 C 407.398438 752.953125 409.597656 752.734375 411.773438 752.292969 C 411.960938 752.253906 412.148438 752.253906 412.335938 752.289062 C 412.523438 752.328125 412.699219 752.398438 412.855469 752.503906 C 413.015625 752.605469 413.148438 752.738281 413.253906 752.894531 C 413.363281 753.054688 413.433594 753.226562 413.472656 753.410156 C 413.511719 753.597656 413.511719 753.785156 413.476562 753.96875 C 413.4375 754.15625 413.367188 754.328125 413.261719 754.488281 C 413.15625 754.644531 413.023438 754.777344 412.867188 754.882812 C 412.707031 754.992188 412.535156 755.0625 412.347656 755.101562 Z M 391.800781 753.253906 C 388.519531 751.945312 385.496094 750.195312 382.734375 748.003906 C 382.585938 747.886719 382.464844 747.742188 382.371094 747.578125 C 382.28125 747.410156 382.222656 747.234375 382.203125 747.046875 C 382.179688 746.855469 382.195312 746.671875 382.25 746.488281 C 382.300781 746.304688 382.386719 746.140625 382.507812 745.992188 C 382.625 745.84375 382.769531 745.722656 382.9375 745.628906 C 383.101562 745.539062 383.28125 745.480469 383.472656 745.460938 C 383.660156 745.4375 383.847656 745.457031 384.03125 745.507812 C 384.214844 745.558594 384.378906 745.644531 384.53125 745.765625 C 387.070312 747.78125 389.851562 749.390625 392.871094 750.59375 C 393.046875 750.664062 393.203125 750.765625 393.339844 750.898438 C 393.476562 751.03125 393.582031 751.183594 393.65625 751.359375 C 393.734375 751.53125 393.773438 751.714844 393.773438 751.90625 C 393.777344 752.09375 393.742188 752.277344 393.671875 752.453125 C 393.601562 752.632812 393.5 752.789062 393.363281 752.921875 C 393.230469 753.058594 393.078125 753.164062 392.902344 753.238281 C 392.726562 753.3125 392.542969 753.351562 392.351562 753.355469 C 392.160156 753.355469 391.976562 753.324219 391.800781 753.253906 Z M 375.476562 740.238281 C 373.464844 737.3125 371.921875 734.160156 370.847656 730.78125 C 370.792969 730.601562 370.769531 730.414062 370.789062 730.226562 C 370.804688 730.035156 370.855469 729.859375 370.945312 729.6875 C 371.03125 729.519531 371.148438 729.375 371.296875 729.253906 C 371.441406 729.132812 371.605469 729.042969 371.789062 728.984375 C 371.96875 728.925781 372.15625 728.90625 372.347656 728.921875 C 372.539062 728.941406 372.71875 728.992188 372.886719 729.078125 C 373.054688 729.167969 373.203125 729.285156 373.324219 729.429688 C 373.449219 729.574219 373.539062 729.738281 373.59375 729.917969 C 374.582031 733.027344 376 735.929688 377.851562 738.617188 C 377.960938 738.773438 378.035156 738.945312 378.074219 739.132812 C 378.113281 739.316406 378.113281 739.503906 378.078125 739.691406 C 378.042969 739.878906 377.972656 740.050781 377.871094 740.210938 C 377.765625 740.371094 377.636719 740.503906 377.476562 740.609375 C 377.320312 740.71875 377.148438 740.789062 376.960938 740.828125 C 376.773438 740.867188 376.585938 740.871094 376.398438 740.835938 C 376.210938 740.800781 376.039062 740.730469 375.878906 740.628906 C 375.71875 740.523438 375.582031 740.394531 375.476562 740.238281 Z M 369.183594 720.519531 C 369.179688 720.347656 369.179688 720.171875 369.179688 720 C 369.179688 716.710938 369.625 713.480469 370.519531 710.3125 C 370.570312 710.128906 370.65625 709.964844 370.773438 709.816406 C 370.894531 709.664062 371.035156 709.542969 371.203125 709.453125 C 371.367188 709.359375 371.546875 709.300781 371.734375 709.277344 C 371.925781 709.253906 372.113281 709.269531 372.296875 709.320312 C 372.480469 709.371094 372.648438 709.457031 372.796875 709.574219 C 372.949219 709.691406 373.070312 709.832031 373.164062 710 C 373.257812 710.164062 373.3125 710.34375 373.335938 710.53125 C 373.359375 710.71875 373.34375 710.90625 373.292969 711.089844 C 372.46875 714.003906 372.058594 716.972656 372.058594 720 C 372.058594 720.160156 372.058594 720.320312 372.0625 720.480469 C 372.066406 720.667969 372.03125 720.851562 371.960938 721.027344 C 371.890625 721.207031 371.789062 721.363281 371.65625 721.496094 C 371.523438 721.632812 371.367188 721.738281 371.191406 721.816406 C 371.019531 721.890625 370.835938 721.929688 370.644531 721.933594 C 370.453125 721.933594 370.269531 721.902344 370.089844 721.832031 C 369.914062 721.761719 369.757812 721.660156 369.621094 721.527344 C 369.484375 721.394531 369.375 721.242188 369.300781 721.066406 C 369.226562 720.894531 369.1875 720.710938 369.183594 720.519531 Z M 374.859375 700.691406 C 376.792969 697.679688 379.128906 695.019531 381.863281 692.707031 C 382.011719 692.585938 382.175781 692.492188 382.355469 692.4375 C 382.539062 692.378906 382.722656 692.355469 382.914062 692.371094 C 383.105469 692.386719 383.285156 692.4375 383.453125 692.523438 C 383.625 692.609375 383.769531 692.726562 383.894531 692.871094 C 384.019531 693.015625 384.109375 693.179688 384.167969 693.359375 C 384.226562 693.539062 384.25 693.726562 384.234375 693.914062 C 384.21875 694.105469 384.164062 694.285156 384.078125 694.453125 C 383.992188 694.621094 383.875 694.769531 383.730469 694.890625 C 381.214844 697.019531 379.066406 699.46875 377.285156 702.234375 C 377.179688 702.394531 377.050781 702.527344 376.894531 702.636719 C 376.738281 702.746094 376.566406 702.820312 376.378906 702.863281 C 376.195312 702.902344 376.007812 702.90625 375.816406 702.871094 C 375.628906 702.839844 375.457031 702.773438 375.296875 702.667969 C 375.132812 702.566406 375 702.4375 374.890625 702.28125 C 374.78125 702.125 374.707031 701.957031 374.664062 701.769531 C 374.625 701.582031 374.621094 701.398438 374.652344 701.210938 C 374.6875 701.023438 374.753906 700.851562 374.859375 700.691406 Z M 390.796875 687.164062 C 394.09375 685.734375 397.527344 684.816406 401.101562 684.414062 C 401.289062 684.390625 401.476562 684.40625 401.660156 684.457031 C 401.84375 684.511719 402.011719 684.597656 402.160156 684.714844 C 402.308594 684.832031 402.429688 684.976562 402.523438 685.140625 C 402.617188 685.308594 402.671875 685.484375 402.695312 685.671875 C 402.714844 685.863281 402.699219 686.046875 402.648438 686.230469 C 402.59375 686.414062 402.507812 686.578125 402.390625 686.726562 C 402.273438 686.875 402.128906 686.996094 401.960938 687.089844 C 401.792969 687.179688 401.617188 687.238281 401.425781 687.257812 C 398.140625 687.632812 394.980469 688.476562 391.945312 689.792969 C 391.773438 689.867188 391.589844 689.90625 391.398438 689.910156 C 391.207031 689.914062 391.023438 689.878906 390.84375 689.8125 C 390.667969 689.742188 390.511719 689.640625 390.371094 689.507812 C 390.234375 689.378906 390.128906 689.222656 390.050781 689.050781 C 389.976562 688.875 389.933594 688.695312 389.933594 688.503906 C 389.929688 688.3125 389.960938 688.128906 390.03125 687.953125 C 390.101562 687.777344 390.203125 687.621094 390.335938 687.484375 C 390.46875 687.347656 390.621094 687.238281 390.796875 687.164062 Z M 405.179688 684.179688 C 408.679688 684.179688 412.109375 684.679688 415.464844 685.675781 C 415.648438 685.730469 415.8125 685.816406 415.960938 685.9375 C 416.109375 686.054688 416.230469 686.199219 416.320312 686.367188 C 416.410156 686.535156 416.464844 686.710938 416.488281 686.902344 C 416.507812 687.089844 416.488281 687.273438 416.433594 687.457031 C 416.378906 687.640625 416.292969 687.804688 416.171875 687.953125 C 416.050781 688.097656 415.90625 688.21875 415.738281 688.308594 C 415.570312 688.398438 415.390625 688.453125 415.203125 688.472656 C 415.011719 688.492188 414.824219 688.476562 414.640625 688.421875 C 411.554688 687.503906 408.402344 687.046875 405.179688 687.046875 C 404.988281 687.046875 404.804688 687.011719 404.628906 686.9375 C 404.453125 686.867188 404.296875 686.761719 404.160156 686.628906 C 404.027344 686.492188 403.921875 686.339844 403.847656 686.164062 C 403.777344 685.988281 403.738281 685.804688 403.738281 685.613281 C 403.738281 685.425781 403.777344 685.242188 403.847656 685.066406 C 403.921875 684.890625 404.027344 684.734375 404.160156 684.601562 C 404.296875 684.46875 404.453125 684.363281 404.628906 684.289062 C 404.804688 684.21875 404.988281 684.179688 405.179688 684.179688 Z M 405.179688 684.179688 " fill-opacity="1" fill-rule="nonzero"/></g><path fill="#1d2939" d="M 431.097656 720 C 431.097656 720.84375 431.058594 721.6875 430.972656 722.527344 C 430.890625 723.367188 430.765625 724.203125 430.601562 725.03125 C 430.433594 725.859375 430.230469 726.679688 429.984375 727.484375 C 429.738281 728.292969 429.449219 729.089844 429.125 729.867188 C 428.800781 730.648438 428.4375 731.410156 428.039062 732.15625 C 427.636719 732.902344 427.203125 733.625 426.730469 734.328125 C 426.257812 735.03125 425.753906 735.707031 425.214844 736.359375 C 424.675781 737.011719 424.109375 737.636719 423.507812 738.234375 C 422.90625 738.832031 422.277344 739.398438 421.621094 739.933594 C 420.964844 740.472656 420.285156 740.972656 419.578125 741.441406 C 418.875 741.910156 418.144531 742.347656 417.398438 742.742188 C 416.648438 743.140625 415.882812 743.503906 415.097656 743.824219 C 414.3125 744.148438 413.515625 744.433594 412.703125 744.679688 C 411.890625 744.925781 411.070312 745.128906 410.234375 745.292969 C 409.402344 745.457031 408.566406 745.582031 407.71875 745.664062 C 406.875 745.746094 406.027344 745.789062 405.179688 745.789062 C 404.332031 745.789062 403.484375 745.746094 402.636719 745.664062 C 401.792969 745.582031 400.953125 745.457031 400.121094 745.292969 C 399.289062 745.128906 398.46875 744.925781 397.65625 744.679688 C 396.84375 744.433594 396.042969 744.148438 395.261719 743.824219 C 394.476562 743.503906 393.710938 743.140625 392.960938 742.742188 C 392.210938 742.347656 391.484375 741.910156 390.777344 741.441406 C 390.074219 740.972656 389.390625 740.472656 388.734375 739.933594 C 388.078125 739.398438 387.449219 738.832031 386.851562 738.234375 C 386.25 737.636719 385.679688 737.011719 385.144531 736.359375 C 384.605469 735.707031 384.097656 735.03125 383.628906 734.328125 C 383.15625 733.625 382.71875 732.902344 382.320312 732.15625 C 381.917969 731.410156 381.558594 730.648438 381.230469 729.867188 C 380.90625 729.089844 380.621094 728.292969 380.375 727.484375 C 380.128906 726.679688 379.921875 725.859375 379.757812 725.03125 C 379.589844 724.203125 379.46875 723.367188 379.382812 722.527344 C 379.300781 721.6875 379.257812 720.84375 379.257812 720 C 379.257812 719.15625 379.300781 718.3125 379.382812 717.472656 C 379.46875 716.632812 379.589844 715.796875 379.757812 714.96875 C 379.921875 714.140625 380.128906 713.320312 380.375 712.515625 C 380.621094 711.707031 380.90625 710.910156 381.230469 710.128906 C 381.558594 709.351562 381.917969 708.585938 382.320312 707.84375 C 382.71875 707.097656 383.15625 706.375 383.628906 705.671875 C 384.097656 704.96875 384.605469 704.292969 385.144531 703.640625 C 385.679688 702.988281 386.25 702.363281 386.851562 701.765625 C 387.449219 701.167969 388.078125 700.601562 388.734375 700.066406 C 389.390625 699.527344 390.074219 699.027344 390.777344 698.558594 C 391.484375 698.085938 392.210938 697.652344 392.960938 697.257812 C 393.710938 696.859375 394.476562 696.496094 395.261719 696.171875 C 396.042969 695.851562 396.84375 695.566406 397.65625 695.320312 C 398.46875 695.074219 399.289062 694.871094 400.121094 694.707031 C 400.953125 694.542969 401.792969 694.417969 402.636719 694.335938 C 403.484375 694.253906 404.332031 694.210938 405.179688 694.210938 C 406.027344 694.210938 406.875 694.253906 407.71875 694.335938 C 408.566406 694.417969 409.402344 694.542969 410.234375 694.707031 C 411.070312 694.871094 411.890625 695.074219 412.703125 695.320312 C 413.515625 695.566406 414.3125 695.851562 415.097656 696.171875 C 415.882812 696.496094 416.648438 696.859375 417.398438 697.257812 C 418.144531 697.652344 418.875 698.085938 419.578125 698.558594 C 420.285156 699.027344 420.964844 699.527344 421.621094 700.066406 C 422.277344 700.601562 422.90625 701.167969 423.507812 701.765625 C 424.109375 702.363281 424.675781 702.988281 425.214844 703.640625 C 425.753906 704.292969 426.257812 704.96875 426.730469 705.671875 C 427.203125 706.375 427.636719 707.097656 428.039062 707.84375 C 428.4375 708.585938 428.800781 709.351562 429.125 710.128906 C 429.449219 710.910156 429.738281 711.707031 429.984375 712.515625 C 430.230469 713.320312 430.433594 714.140625 430.601562 714.96875 C 430.765625 715.796875 430.890625 716.632812 430.972656 717.472656 C 431.058594 718.3125 431.097656 719.15625 431.097656 720 Z M 431.097656 720 " fill-opacity="1" fill-rule="nonzero"/><path fill="#ffffff" d="M 405.179688 937.777344 C 406.3125 937.777344 407.441406 937.832031 408.566406 937.941406 C 409.691406 938.050781 410.8125 938.214844 411.921875 938.4375 C 413.03125 938.65625 414.128906 938.929688 415.210938 939.257812 C 416.292969 939.582031 417.359375 939.960938 418.40625 940.394531 C 419.449219 940.824219 420.472656 941.304688 421.46875 941.835938 C 422.46875 942.367188 423.4375 942.945312 424.378906 943.570312 C 425.320312 944.195312 426.230469 944.867188 427.105469 945.582031 C 427.980469 946.296875 428.816406 947.050781 429.617188 947.847656 C 430.417969 948.644531 431.175781 949.476562 431.894531 950.347656 C 432.613281 951.21875 433.285156 952.121094 433.914062 953.058594 C 434.542969 953.992188 435.125 954.957031 435.660156 955.953125 C 436.191406 956.945312 436.675781 957.960938 437.109375 959.003906 C 437.542969 960.042969 437.921875 961.101562 438.25 962.179688 C 438.578125 963.257812 438.855469 964.347656 439.074219 965.453125 C 439.296875 966.558594 439.460938 967.671875 439.574219 968.789062 C 439.683594 969.910156 439.738281 971.035156 439.738281 972.160156 C 439.738281 973.289062 439.683594 974.410156 439.574219 975.53125 C 439.460938 976.652344 439.296875 977.765625 439.074219 978.871094 C 438.855469 979.972656 438.578125 981.066406 438.25 982.144531 C 437.921875 983.21875 437.542969 984.28125 437.109375 985.320312 C 436.675781 986.359375 436.191406 987.378906 435.660156 988.371094 C 435.125 989.363281 434.542969 990.328125 433.914062 991.265625 C 433.285156 992.199219 432.613281 993.105469 431.894531 993.976562 C 431.175781 994.84375 430.417969 995.679688 429.617188 996.476562 C 428.816406 997.273438 427.980469 998.027344 427.105469 998.742188 C 426.230469 999.457031 425.320312 1000.125 424.378906 1000.75 C 423.4375 1001.378906 422.46875 1001.957031 421.46875 1002.488281 C 420.472656 1003.015625 419.449219 1003.5 418.40625 1003.929688 C 417.359375 1004.359375 416.292969 1004.738281 415.210938 1005.066406 C 414.128906 1005.394531 413.03125 1005.667969 411.921875 1005.886719 C 410.8125 1006.105469 409.691406 1006.269531 408.566406 1006.382812 C 407.441406 1006.492188 406.3125 1006.546875 405.179688 1006.546875 C 404.046875 1006.546875 402.917969 1006.492188 401.792969 1006.382812 C 400.664062 1006.269531 399.546875 1006.105469 398.4375 1005.886719 C 397.328125 1005.667969 396.230469 1005.394531 395.148438 1005.066406 C 394.0625 1004.738281 393 1004.359375 391.953125 1003.929688 C 390.90625 1003.5 389.886719 1003.015625 388.886719 1002.488281 C 387.890625 1001.957031 386.917969 1001.378906 385.980469 1000.75 C 385.039062 1000.125 384.128906 999.457031 383.253906 998.742188 C 382.378906 998.027344 381.542969 997.273438 380.742188 996.476562 C 379.941406 995.679688 379.183594 994.84375 378.464844 993.976562 C 377.746094 993.105469 377.074219 992.199219 376.445312 991.265625 C 375.816406 990.328125 375.234375 989.363281 374.699219 988.371094 C 374.167969 987.378906 373.683594 986.359375 373.25 985.320312 C 372.816406 984.28125 372.4375 983.21875 372.105469 982.144531 C 371.777344 981.066406 371.503906 979.972656 371.28125 978.871094 C 371.0625 977.765625 370.894531 976.652344 370.785156 975.53125 C 370.675781 974.410156 370.617188 973.289062 370.617188 972.160156 C 370.617188 971.035156 370.675781 969.910156 370.785156 968.789062 C 370.894531 967.671875 371.0625 966.558594 371.28125 965.453125 C 371.503906 964.347656 371.777344 963.257812 372.105469 962.179688 C 372.4375 961.101562 372.816406 960.042969 373.25 959.003906 C 373.683594 957.960938 374.167969 956.945312 374.699219 955.953125 C 375.234375 954.957031 375.816406 953.992188 376.445312 953.058594 C 377.074219 952.121094 377.746094 951.21875 378.464844 950.347656 C 379.183594 949.476562 379.941406 948.644531 380.742188 947.847656 C 381.542969 947.050781 382.378906 946.296875 383.253906 945.582031 C 384.128906 944.867188 385.039062 944.195312 385.980469 943.570312 C 386.917969 942.945312 387.890625 942.367188 388.886719 941.835938 C 389.886719 941.304688 390.90625 940.824219 391.953125 940.394531 C 393 939.960938 394.0625 939.582031 395.148438 939.257812 C 396.230469 938.929688 397.328125 938.65625 398.4375 938.4375 C 399.546875 938.214844 400.664062 938.050781 401.792969 937.941406 C 402.917969 937.832031 404.046875 937.777344 405.179688 937.777344 Z M 405.179688 937.777344 " fill-opacity="1" fill-rule="nonzero"/><g clip-path="url(#c02d56aaa5)"><path fill="#1d2939" d="M 425.054688 942.296875 C 428.050781 944.269531 430.6875 946.636719 432.972656 949.394531 C 433.09375 949.542969 433.179688 949.707031 433.238281 949.886719 C 433.292969 950.070312 433.3125 950.253906 433.292969 950.445312 C 433.273438 950.632812 433.21875 950.8125 433.128906 950.980469 C 433.039062 951.144531 432.921875 951.289062 432.773438 951.410156 C 432.628906 951.53125 432.460938 951.621094 432.28125 951.675781 C 432.097656 951.730469 431.910156 951.75 431.722656 951.730469 C 431.53125 951.714844 431.351562 951.660156 431.183594 951.570312 C 431.015625 951.480469 430.871094 951.363281 430.746094 951.214844 C 428.648438 948.679688 426.21875 946.5 423.464844 944.6875 C 423.304688 944.582031 423.171875 944.449219 423.066406 944.292969 C 422.960938 944.132812 422.886719 943.960938 422.847656 943.777344 C 422.8125 943.589844 422.808594 943.402344 422.847656 943.21875 C 422.882812 943.03125 422.953125 942.859375 423.058594 942.699219 C 423.164062 942.542969 423.296875 942.410156 423.453125 942.304688 C 423.613281 942.195312 423.785156 942.125 423.972656 942.085938 C 424.160156 942.050781 424.347656 942.046875 424.535156 942.085938 C 424.722656 942.121094 424.894531 942.191406 425.054688 942.296875 Z M 438.394531 958.347656 C 439.78125 961.648438 440.652344 965.082031 441.003906 968.640625 C 441.023438 968.828125 441.003906 969.015625 440.949219 969.195312 C 440.894531 969.378906 440.804688 969.542969 440.683594 969.691406 C 440.5625 969.835938 440.417969 969.957031 440.25 970.042969 C 440.082031 970.132812 439.902344 970.1875 439.714844 970.207031 C 439.523438 970.226562 439.335938 970.207031 439.152344 970.152344 C 438.972656 970.097656 438.804688 970.007812 438.660156 969.890625 C 438.511719 969.769531 438.390625 969.625 438.300781 969.457031 C 438.210938 969.289062 438.15625 969.109375 438.140625 968.921875 C 437.8125 965.648438 437.011719 962.492188 435.738281 959.453125 C 435.664062 959.277344 435.625 959.097656 435.625 958.90625 C 435.625 958.714844 435.660156 958.535156 435.734375 958.359375 C 435.804688 958.183594 435.910156 958.027344 436.042969 957.890625 C 436.179688 957.757812 436.335938 957.652344 436.511719 957.578125 C 436.6875 957.507812 436.871094 957.46875 437.0625 957.46875 C 437.253906 957.46875 437.4375 957.503906 437.613281 957.574219 C 437.789062 957.648438 437.945312 957.75 438.082031 957.886719 C 438.214844 958.019531 438.320312 958.171875 438.394531 958.347656 Z M 440.566406 978.75 C 439.90625 982.261719 438.742188 985.601562 437.078125 988.765625 C 436.988281 988.933594 436.871094 989.078125 436.722656 989.203125 C 436.578125 989.324219 436.414062 989.414062 436.230469 989.46875 C 436.046875 989.527344 435.863281 989.546875 435.671875 989.527344 C 435.480469 989.511719 435.300781 989.460938 435.132812 989.371094 C 434.964844 989.285156 434.816406 989.167969 434.695312 989.019531 C 434.574219 988.875 434.484375 988.710938 434.425781 988.53125 C 434.371094 988.347656 434.347656 988.164062 434.367188 987.972656 C 434.382812 987.785156 434.4375 987.605469 434.523438 987.4375 C 436.058594 984.523438 437.125 981.453125 437.734375 978.222656 C 437.769531 978.035156 437.839844 977.863281 437.941406 977.703125 C 438.046875 977.542969 438.179688 977.410156 438.335938 977.300781 C 438.492188 977.195312 438.664062 977.121094 438.851562 977.082031 C 439.039062 977.042969 439.226562 977.042969 439.414062 977.078125 C 439.601562 977.113281 439.777344 977.179688 439.9375 977.285156 C 440.097656 977.386719 440.230469 977.519531 440.335938 977.675781 C 440.445312 977.832031 440.519531 978.003906 440.558594 978.1875 C 440.597656 978.375 440.601562 978.5625 440.566406 978.75 Z M 430.832031 997.289062 C 428.324219 999.824219 425.5 1001.941406 422.355469 1003.640625 C 422.1875 1003.730469 422.007812 1003.785156 421.820312 1003.804688 C 421.628906 1003.824219 421.441406 1003.808594 421.261719 1003.753906 C 421.078125 1003.699219 420.910156 1003.613281 420.761719 1003.492188 C 420.613281 1003.375 420.496094 1003.230469 420.402344 1003.0625 C 420.3125 1002.898438 420.257812 1002.71875 420.238281 1002.53125 C 420.214844 1002.339844 420.234375 1002.15625 420.289062 1001.972656 C 420.34375 1001.792969 420.429688 1001.625 420.550781 1001.480469 C 420.667969 1001.332031 420.8125 1001.210938 420.980469 1001.121094 C 423.875 999.558594 426.472656 997.613281 428.78125 995.277344 C 428.914062 995.144531 429.070312 995.039062 429.246094 994.964844 C 429.421875 994.890625 429.605469 994.851562 429.796875 994.851562 C 429.988281 994.851562 430.171875 994.882812 430.347656 994.957031 C 430.523438 995.027344 430.683594 995.128906 430.816406 995.261719 C 430.953125 995.394531 431.058594 995.550781 431.132812 995.726562 C 431.207031 995.898438 431.246094 996.082031 431.246094 996.273438 C 431.25 996.460938 431.214844 996.644531 431.140625 996.820312 C 431.070312 996.996094 430.96875 997.152344 430.832031 997.289062 Z M 412.347656 1007.261719 C 409.984375 1007.742188 407.59375 1007.980469 405.179688 1007.980469 C 404.175781 1007.980469 403.175781 1007.9375 402.179688 1007.855469 C 401.988281 1007.839844 401.808594 1007.789062 401.640625 1007.699219 C 401.46875 1007.613281 401.324219 1007.496094 401.199219 1007.351562 C 401.074219 1007.207031 400.984375 1007.042969 400.925781 1006.863281 C 400.867188 1006.683594 400.847656 1006.496094 400.863281 1006.308594 C 400.878906 1006.117188 400.929688 1005.9375 401.019531 1005.769531 C 401.105469 1005.601562 401.222656 1005.457031 401.367188 1005.332031 C 401.515625 1005.210938 401.679688 1005.121094 401.859375 1005.0625 C 402.042969 1005.003906 402.226562 1004.984375 402.417969 1005 C 403.335938 1005.074219 404.257812 1005.113281 405.179688 1005.113281 C 407.398438 1005.113281 409.597656 1004.894531 411.773438 1004.453125 C 411.960938 1004.417969 412.148438 1004.414062 412.335938 1004.453125 C 412.523438 1004.488281 412.699219 1004.558594 412.855469 1004.664062 C 413.015625 1004.769531 413.148438 1004.898438 413.253906 1005.058594 C 413.363281 1005.214844 413.433594 1005.386719 413.472656 1005.574219 C 413.511719 1005.757812 413.511719 1005.945312 413.476562 1006.132812 C 413.4375 1006.316406 413.367188 1006.492188 413.261719 1006.648438 C 413.15625 1006.808594 413.023438 1006.941406 412.867188 1007.046875 C 412.707031 1007.152344 412.535156 1007.222656 412.347656 1007.261719 Z M 391.800781 1005.414062 C 388.519531 1004.105469 385.496094 1002.359375 382.734375 1000.164062 C 382.585938 1000.046875 382.464844 999.90625 382.371094 999.738281 C 382.28125 999.574219 382.222656 999.394531 382.203125 999.207031 C 382.179688 999.015625 382.195312 998.832031 382.25 998.648438 C 382.300781 998.464844 382.386719 998.300781 382.507812 998.152344 C 382.625 998.003906 382.769531 997.882812 382.9375 997.792969 C 383.101562 997.699219 383.28125 997.644531 383.472656 997.621094 C 383.660156 997.601562 383.847656 997.617188 384.03125 997.667969 C 384.214844 997.722656 384.378906 997.808594 384.53125 997.925781 C 387.070312 999.941406 389.851562 1001.550781 392.871094 1002.753906 C 393.046875 1002.824219 393.203125 1002.925781 393.339844 1003.058594 C 393.476562 1003.191406 393.582031 1003.34375 393.65625 1003.519531 C 393.734375 1003.695312 393.773438 1003.875 393.773438 1004.066406 C 393.777344 1004.257812 393.742188 1004.441406 393.671875 1004.617188 C 393.601562 1004.792969 393.5 1004.949219 393.363281 1005.085938 C 393.230469 1005.21875 393.078125 1005.324219 392.902344 1005.402344 C 392.726562 1005.476562 392.542969 1005.515625 392.351562 1005.515625 C 392.160156 1005.519531 391.976562 1005.484375 391.800781 1005.414062 Z M 375.476562 992.398438 C 373.464844 989.472656 371.921875 986.324219 370.847656 982.941406 C 370.792969 982.761719 370.769531 982.578125 370.789062 982.386719 C 370.804688 982.199219 370.855469 982.019531 370.945312 981.851562 C 371.03125 981.683594 371.148438 981.535156 371.296875 981.414062 C 371.441406 981.292969 371.605469 981.203125 371.789062 981.144531 C 371.96875 981.089844 372.15625 981.066406 372.347656 981.085938 C 372.539062 981.101562 372.71875 981.152344 372.886719 981.242188 C 373.054688 981.328125 373.203125 981.445312 373.324219 981.589844 C 373.449219 981.734375 373.539062 981.898438 373.59375 982.082031 C 374.582031 985.191406 376 988.089844 377.851562 990.777344 C 377.960938 990.9375 378.035156 991.105469 378.074219 991.292969 C 378.113281 991.480469 378.113281 991.664062 378.078125 991.851562 C 378.042969 992.039062 377.972656 992.210938 377.871094 992.371094 C 377.765625 992.53125 377.636719 992.664062 377.476562 992.769531 C 377.320312 992.878906 377.148438 992.953125 376.960938 992.992188 C 376.773438 993.03125 376.585938 993.03125 376.398438 992.996094 C 376.210938 992.960938 376.039062 992.894531 375.878906 992.789062 C 375.71875 992.683594 375.582031 992.554688 375.476562 992.398438 Z M 369.183594 972.683594 C 369.179688 972.507812 369.179688 972.335938 369.179688 972.160156 C 369.179688 968.871094 369.625 965.640625 370.519531 962.472656 C 370.570312 962.292969 370.65625 962.125 370.773438 961.976562 C 370.894531 961.828125 371.035156 961.707031 371.203125 961.613281 C 371.367188 961.519531 371.546875 961.460938 371.734375 961.4375 C 371.925781 961.417969 372.113281 961.429688 372.296875 961.484375 C 372.480469 961.535156 372.648438 961.617188 372.796875 961.734375 C 372.949219 961.851562 373.070312 961.996094 373.164062 962.160156 C 373.257812 962.324219 373.3125 962.503906 373.335938 962.691406 C 373.359375 962.878906 373.34375 963.066406 373.292969 963.25 C 372.46875 966.164062 372.058594 969.132812 372.058594 972.160156 C 372.058594 972.320312 372.058594 972.480469 372.0625 972.640625 C 372.066406 972.828125 372.03125 973.011719 371.960938 973.191406 C 371.890625 973.367188 371.789062 973.523438 371.65625 973.660156 C 371.523438 973.796875 371.367188 973.902344 371.191406 973.976562 C 371.019531 974.050781 370.835938 974.089844 370.644531 974.09375 C 370.453125 974.097656 370.269531 974.0625 370.089844 973.992188 C 369.914062 973.921875 369.757812 973.820312 369.621094 973.6875 C 369.484375 973.554688 369.375 973.402344 369.300781 973.226562 C 369.226562 973.054688 369.1875 972.871094 369.183594 972.683594 Z M 374.859375 952.851562 C 376.792969 949.84375 379.128906 947.183594 381.863281 944.867188 C 382.011719 944.746094 382.175781 944.65625 382.355469 944.597656 C 382.539062 944.539062 382.722656 944.515625 382.914062 944.53125 C 383.105469 944.546875 383.285156 944.597656 383.453125 944.683594 C 383.625 944.773438 383.769531 944.886719 383.894531 945.03125 C 384.019531 945.175781 384.109375 945.339844 384.167969 945.519531 C 384.226562 945.703125 384.25 945.886719 384.234375 946.078125 C 384.21875 946.265625 384.167969 946.445312 384.078125 946.613281 C 383.992188 946.78125 383.875 946.929688 383.730469 947.050781 C 381.214844 949.179688 379.066406 951.628906 377.285156 954.394531 C 377.179688 954.554688 377.050781 954.691406 376.894531 954.800781 C 376.738281 954.90625 376.566406 954.980469 376.378906 955.023438 C 376.195312 955.0625 376.007812 955.066406 375.816406 955.035156 C 375.628906 955 375.457031 954.933594 375.296875 954.832031 C 375.132812 954.726562 375 954.597656 374.890625 954.441406 C 374.78125 954.285156 374.707031 954.117188 374.664062 953.929688 C 374.625 953.746094 374.621094 953.558594 374.652344 953.371094 C 374.6875 953.183594 374.753906 953.011719 374.859375 952.851562 Z M 390.796875 939.324219 C 394.09375 937.894531 397.527344 936.980469 401.101562 936.574219 C 401.289062 936.550781 401.476562 936.566406 401.660156 936.621094 C 401.84375 936.671875 402.011719 936.757812 402.160156 936.875 C 402.308594 936.992188 402.429688 937.136719 402.523438 937.300781 C 402.617188 937.46875 402.671875 937.644531 402.695312 937.835938 C 402.714844 938.023438 402.699219 938.210938 402.648438 938.390625 C 402.59375 938.574219 402.507812 938.738281 402.390625 938.890625 C 402.273438 939.039062 402.128906 939.15625 401.960938 939.25 C 401.792969 939.34375 401.617188 939.398438 401.425781 939.421875 C 398.140625 939.792969 394.980469 940.636719 391.945312 941.953125 C 391.773438 942.027344 391.589844 942.066406 391.398438 942.070312 C 391.207031 942.074219 391.023438 942.042969 390.84375 941.972656 C 390.667969 941.902344 390.511719 941.800781 390.371094 941.671875 C 390.234375 941.539062 390.128906 941.386719 390.050781 941.210938 C 389.976562 941.039062 389.9375 940.855469 389.933594 940.664062 C 389.929688 940.476562 389.960938 940.292969 390.03125 940.113281 C 390.101562 939.9375 390.203125 939.78125 390.335938 939.644531 C 390.46875 939.507812 390.621094 939.402344 390.796875 939.324219 Z M 405.179688 936.34375 C 408.679688 936.34375 412.109375 936.839844 415.464844 937.835938 C 415.648438 937.890625 415.8125 937.976562 415.960938 938.097656 C 416.109375 938.21875 416.230469 938.359375 416.320312 938.527344 C 416.410156 938.695312 416.464844 938.871094 416.484375 939.0625 C 416.507812 939.25 416.488281 939.4375 416.433594 939.617188 C 416.378906 939.800781 416.292969 939.964844 416.171875 940.113281 C 416.050781 940.261719 415.90625 940.378906 415.738281 940.46875 C 415.570312 940.558594 415.390625 940.613281 415.203125 940.632812 C 415.011719 940.652344 414.824219 940.636719 414.640625 940.582031 C 411.554688 939.667969 408.402344 939.207031 405.179688 939.207031 C 404.988281 939.207031 404.804688 939.171875 404.628906 939.097656 C 404.453125 939.027344 404.296875 938.921875 404.160156 938.789062 C 404.027344 938.652344 403.921875 938.5 403.847656 938.324219 C 403.777344 938.148438 403.738281 937.964844 403.738281 937.777344 C 403.738281 937.585938 403.777344 937.402344 403.847656 937.226562 C 403.921875 937.050781 404.027344 936.898438 404.160156 936.761719 C 404.296875 936.628906 404.453125 936.523438 404.628906 936.453125 C 404.804688 936.378906 404.988281 936.34375 405.179688 936.34375 Z M 405.179688 936.34375 " fill-opacity="1" fill-rule="nonzero"/></g><path fill="#fd853a" d="M 431.097656 972.160156 C 431.097656 973.003906 431.058594 973.847656 430.972656 974.6875 C 430.890625 975.53125 430.765625 976.363281 430.601562 977.191406 C 430.433594 978.019531 430.230469 978.839844 429.984375 979.648438 C 429.738281 980.457031 429.449219 981.25 429.125 982.03125 C 428.800781 982.808594 428.4375 983.574219 428.039062 984.316406 C 427.636719 985.0625 427.203125 985.785156 426.730469 986.488281 C 426.257812 987.191406 425.753906 987.867188 425.214844 988.523438 C 424.675781 989.175781 424.109375 989.800781 423.507812 990.398438 C 422.90625 990.992188 422.277344 991.5625 421.621094 992.097656 C 420.964844 992.632812 420.285156 993.136719 419.578125 993.605469 C 418.875 994.074219 418.144531 994.507812 417.398438 994.90625 C 416.648438 995.304688 415.882812 995.664062 415.097656 995.988281 C 414.3125 996.308594 413.515625 996.59375 412.703125 996.839844 C 411.890625 997.085938 411.070312 997.289062 410.234375 997.453125 C 409.402344 997.621094 408.566406 997.742188 407.71875 997.824219 C 406.875 997.910156 406.027344 997.949219 405.179688 997.949219 C 404.332031 997.949219 403.484375 997.910156 402.636719 997.824219 C 401.792969 997.742188 400.953125 997.621094 400.121094 997.453125 C 399.289062 997.289062 398.46875 997.085938 397.65625 996.839844 C 396.84375 996.59375 396.042969 996.308594 395.261719 995.988281 C 394.476562 995.664062 393.710938 995.304688 392.960938 994.90625 C 392.210938 994.507812 391.484375 994.074219 390.777344 993.605469 C 390.074219 993.136719 389.390625 992.632812 388.734375 992.097656 C 388.078125 991.5625 387.449219 990.992188 386.851562 990.398438 C 386.25 989.800781 385.679688 989.175781 385.144531 988.523438 C 384.605469 987.867188 384.097656 987.191406 383.628906 986.488281 C 383.15625 985.785156 382.71875 985.0625 382.320312 984.316406 C 381.917969 983.574219 381.558594 982.808594 381.230469 982.03125 C 380.90625 981.25 380.621094 980.457031 380.375 979.648438 C 380.128906 978.839844 379.921875 978.019531 379.757812 977.191406 C 379.589844 976.363281 379.46875 975.53125 379.382812 974.6875 C 379.300781 973.847656 379.257812 973.003906 379.257812 972.160156 C 379.257812 971.316406 379.300781 970.472656 379.382812 969.632812 C 379.46875 968.792969 379.589844 967.957031 379.757812 967.128906 C 379.921875 966.300781 380.128906 965.484375 380.375 964.675781 C 380.621094 963.867188 380.90625 963.074219 381.230469 962.292969 C 381.558594 961.511719 381.917969 960.75 382.320312 960.003906 C 382.71875 959.257812 383.15625 958.535156 383.628906 957.832031 C 384.097656 957.132812 384.605469 956.453125 385.144531 955.800781 C 385.679688 955.148438 386.25 954.523438 386.851562 953.925781 C 387.449219 953.328125 388.078125 952.761719 388.734375 952.226562 C 389.390625 951.691406 390.074219 951.1875 390.777344 950.71875 C 391.484375 950.25 392.210938 949.816406 392.960938 949.417969 C 393.710938 949.019531 394.476562 948.65625 395.261719 948.335938 C 396.042969 948.011719 396.84375 947.726562 397.65625 947.484375 C 398.46875 947.238281 399.289062 947.03125 400.121094 946.867188 C 400.953125 946.703125 401.792969 946.578125 402.636719 946.496094 C 403.484375 946.414062 404.332031 946.371094 405.179688 946.371094 C 406.027344 946.371094 406.875 946.414062 407.71875 946.496094 C 408.566406 946.578125 409.402344 946.703125 410.234375 946.867188 C 411.070312 947.03125 411.890625 947.238281 412.703125 947.484375 C 413.515625 947.726562 414.3125 948.011719 415.097656 948.335938 C 415.882812 948.65625 416.648438 949.019531 417.398438 949.417969 C 418.144531 949.816406 418.875 950.25 419.578125 950.71875 C 420.285156 951.1875 420.964844 951.691406 421.621094 952.226562 C 422.277344 952.761719 422.90625 953.328125 423.507812 953.925781 C 424.109375 954.523438 424.675781 955.148438 425.214844 955.800781 C 425.753906 956.453125 426.257812 957.132812 426.730469 957.832031 C 427.203125 958.535156 427.636719 959.257812 428.039062 960.003906 C 428.4375 960.75 428.800781 961.511719 429.125 962.292969 C 429.449219 963.074219 429.738281 963.867188 429.984375 964.675781 C 430.230469 965.484375 430.433594 966.300781 430.601562 967.128906 C 430.765625 967.957031 430.890625 968.792969 430.972656 969.632812 C 431.058594 970.472656 431.097656 971.316406 431.097656 972.160156 Z M 431.097656 972.160156 " fill-opacity="1" fill-rule="nonzero"/></svg>