<svg width="1440" height="148" viewBox="0 0 1440 148" fill="none" xmlns="http://www.w3.org/2000/svg">
<g clip-path="url(#clip0_64_1463)">
<path d="M0 24.0811C0 10.8262 10.7452 0.0810547 24 0.0810547H1440V123.081C1440 136.336 1429.25 147.081 1416 147.081H0V24.0811Z" fill="#FB6514"/>
<rect width="4869" height="63" transform="translate(-19 84.4639) rotate(-2.5)" fill="white"/>
<path d="M-0.33257 131.27C-7.95731 131.603 -14.0089 126.15 -14.3376 118.621L-15.2296 98.1925L-10.8657 98.0019L-9.97799 118.335C-9.75187 123.514 -5.69589 127.276 -0.516819 127.05C4.7102 126.822 8.42282 122.72 8.19669 117.541L7.30895 97.2084L11.6728 97.0179L12.5647 117.446C12.8934 124.975 7.34012 130.935 -0.33257 131.27ZM48.3867 128.566L42.92 128.805L31.8212 115.597L21.916 129.722L16.5451 129.957L28.7183 112.753L15.2922 96.8599L20.7111 96.6233L31.6617 109.742L41.3314 95.723L46.7503 95.4864L34.7605 112.49L48.3867 128.566ZM75.1842 94.2449C84.775 93.8262 92.278 100.609 92.6905 110.056C93.103 119.503 86.2197 126.915 76.6288 127.333L63.873 127.89L62.4283 94.8019L75.1842 94.2449ZM76.4008 123.211C83.4021 122.906 88.4927 117.35 88.1828 110.253C87.8729 103.156 82.3176 98.0654 75.3163 98.3711L67.0202 98.7333L68.1047 123.574L76.4008 123.211ZM121.946 113.103C121.971 113.679 121.952 114.352 121.93 114.93L100.878 115.849C101.879 120.081 105.508 122.853 110.255 122.646C113.852 122.489 116.845 120.629 118.33 118.306L121.266 120.628C118.962 123.996 115.024 126.234 110.277 126.441C102.604 126.776 96.6546 121.462 96.3342 114.125C96.0181 106.884 101.294 101.177 108.631 100.856C115.92 100.538 121.626 105.766 121.946 113.103ZM108.749 104.647C104.481 104.833 101.252 107.905 100.666 112.11L117.498 111.376C116.547 107.189 113.064 104.458 108.749 104.647ZM135.085 125.358C130.769 125.546 127.339 124.014 124.991 121.955L127.163 118.881C129.067 120.672 131.709 121.758 134.874 121.619C138.086 121.479 140.478 120.125 140.381 117.92C140.279 115.57 137.514 114.97 134.268 114.343C130.195 113.512 125.394 112.472 125.169 107.341C124.962 102.594 129.171 99.9595 134.207 99.7396C138.091 99.57 141.177 100.925 143.321 102.705L141.151 105.827C139.451 104.315 137.103 103.361 134.418 103.478C131.588 103.602 129.287 104.807 129.379 106.917C129.484 109.315 132.294 109.865 135.589 110.49C139.659 111.273 144.411 112.266 144.633 117.35C144.844 122.193 140.6 125.117 135.085 125.358ZM150.2 94.7172C148.618 94.7863 147.366 93.6398 147.299 92.1053C147.23 90.5228 148.379 89.3195 149.961 89.2504C151.496 89.1834 152.745 90.282 152.814 91.8645C152.881 93.399 151.735 94.6502 150.2 94.7172ZM149.419 124.155L148.352 99.6986L152.476 99.5185L153.543 123.975L149.419 124.155ZM175.219 123.653C179.823 123.452 183.193 125.804 183.85 129.859L179.631 131.148C179.438 128.946 177.457 127.592 174.676 127.713L165.661 128.107C161.584 128.285 158.748 126.054 158.598 122.601C158.497 120.3 159.554 118.091 161.378 116.955C159.232 115.127 157.818 112.45 157.682 109.333C157.418 103.291 162.015 98.5255 168.393 98.247C170.647 98.1486 172.686 98.6361 174.456 99.5678C174.823 96.9573 176.861 95.2348 179.835 95.105L181.705 95.0233L181.872 98.8596L180.242 98.9308C178.467 99.0083 177.315 100.116 177.338 101.748C178.952 103.503 179.916 105.768 180.029 108.357C180.293 114.399 175.65 119.214 169.32 119.491C167.402 119.575 165.659 119.266 164.091 118.566C163.159 119.231 162.63 120.311 162.676 121.366C162.751 123.093 164.19 124.135 166.252 124.045L175.219 123.653ZM168.564 102.179C164.584 102.353 161.785 105.358 161.95 109.146C162.117 112.983 165.216 115.73 169.149 115.559C173.081 115.387 175.928 112.38 175.761 108.543C175.595 104.755 172.497 102.008 168.564 102.179ZM197.862 96.9604C203.808 96.7008 207.96 100.459 208.222 106.454L208.881 121.559L204.757 121.739L204.154 107.928C203.964 103.565 201.057 100.809 196.693 100.999C192.185 101.196 189.34 104.251 189.532 108.663L190.131 122.378L186.007 122.558L184.939 98.1011L189.063 97.9211L189.227 101.662C191.023 98.7964 194.025 97.1279 197.862 96.9604Z" fill="black"/>
<path d="M243.383 87.5217L248.615 99.6048L261.108 103.764L249.025 108.996L244.866 121.489L239.634 109.406L227.141 105.247L239.224 100.015L243.383 87.5217Z" fill="#FD853A"/>
<path d="M305.111 117.358L301.549 109.489L285.34 110.197L282.477 118.346L277.777 118.551L289.808 84.8741L295.035 84.6459L309.955 117.146L305.111 117.358ZM286.793 106.05L299.74 105.484L292.557 89.5106L286.793 106.05ZM326.264 91.3541C333.265 91.0484 338.781 96.3329 339.099 103.622C339.418 110.911 334.383 116.656 327.382 116.962C323.306 117.14 319.865 115.368 317.669 112.389L318.26 125.912L314.136 126.092L312.67 92.5242L316.794 92.3441L316.987 96.7559C318.915 93.5968 322.188 91.5321 326.264 91.3541ZM326.441 113.015C331.476 112.795 335.051 108.843 334.831 103.808C334.612 98.7731 330.706 95.148 325.67 95.3678C320.683 95.5856 317.108 99.5373 317.328 104.572C317.548 109.608 321.454 113.233 326.441 113.015ZM356.921 90.0156C363.922 89.7099 369.438 94.9943 369.756 102.283C370.075 109.572 365.04 115.318 358.039 115.623C353.963 115.801 350.522 114.03 348.326 111.051L348.917 124.574L344.793 124.754L343.327 91.1857L347.451 91.0056L347.644 95.4174C349.572 92.2583 352.845 90.1936 356.921 90.0156ZM357.098 111.676C362.133 111.457 365.708 107.505 365.488 102.47C365.269 97.4345 361.363 93.8095 356.328 94.0293C351.34 94.247 347.765 98.1987 347.985 103.234C348.205 108.269 352.111 111.894 357.098 111.676ZM397.876 80.1558C407.466 79.737 414.969 86.5202 415.382 95.9672C415.794 105.414 408.911 112.826 399.32 113.244L386.564 113.801L385.12 80.7127L397.876 80.1558ZM399.092 109.122C406.094 108.817 411.184 103.261 410.874 96.164C410.564 89.0668 405.009 83.9763 398.008 84.282L389.712 84.6442L390.796 109.485L399.092 109.122ZM444.637 99.014C444.662 99.5895 444.644 100.263 444.621 100.84L423.569 101.76C424.571 105.992 428.199 108.764 432.946 108.557C436.543 108.4 439.537 106.54 441.021 104.217L443.957 106.539C441.654 109.907 437.716 112.144 432.968 112.352C425.295 112.687 419.346 107.373 419.026 100.036C418.709 92.7951 423.985 87.0875 431.322 86.7672C438.612 86.4489 444.317 91.677 444.637 99.014ZM431.44 90.5576C427.172 90.744 423.943 93.8158 423.358 98.0213L440.19 97.2864C439.238 93.0999 435.756 90.3692 431.44 90.5576ZM457.776 111.269C453.46 111.457 450.03 109.925 447.682 107.866L449.854 104.792C451.758 106.583 454.4 107.668 457.565 107.53C460.778 107.39 463.169 106.036 463.073 103.83C462.97 101.481 460.205 100.881 456.959 100.254C452.887 99.4226 448.085 98.383 447.861 93.2519C447.654 88.5045 451.863 85.8703 456.898 85.6505C460.782 85.4809 463.868 86.8356 466.012 88.6158L463.842 91.7374C462.142 90.2261 459.795 89.2716 457.109 89.3888C454.28 89.5124 451.978 90.7179 452.07 92.8279C452.175 95.2256 454.986 95.7755 458.28 96.4004C462.35 97.1837 467.102 98.1773 467.324 103.26C467.535 108.104 463.291 111.028 457.776 111.269ZM472.891 80.6281C471.309 80.6972 470.058 79.5507 469.991 78.0161C469.922 76.4336 471.07 75.2304 472.653 75.1613C474.187 75.0943 475.436 76.1929 475.505 77.7754C475.572 79.3099 474.426 80.5611 472.891 80.6281ZM472.111 110.066L471.043 85.6095L475.167 85.4294L476.235 109.886L472.111 110.066ZM497.911 109.564C502.514 109.363 505.884 111.715 506.542 115.77L502.322 117.059C502.13 114.857 500.149 113.502 497.367 113.624L488.352 114.017C484.276 114.195 481.44 111.965 481.289 108.512C481.189 106.211 482.245 104.002 484.069 102.866C481.924 101.038 480.51 98.3607 480.373 95.2436C480.11 89.2014 484.706 84.4364 491.084 84.1579C493.338 84.0595 495.377 84.547 497.147 85.4787C497.514 82.8682 499.553 81.1456 502.526 81.0158L504.396 80.9342L504.564 84.7705L502.933 84.8417C501.159 84.9192 500.006 86.0265 500.029 87.6591C501.643 89.4143 502.607 91.6784 502.72 94.268C502.984 100.31 498.342 105.125 492.012 105.402C490.093 105.485 488.35 105.177 486.782 104.477C485.85 105.142 485.321 106.222 485.367 107.277C485.442 109.004 486.881 110.046 488.943 109.956L497.911 109.564ZM491.256 88.0902C487.276 88.2639 484.476 91.2689 484.641 95.0573C484.809 98.8937 487.908 101.641 491.84 101.469C495.772 101.298 498.62 98.2907 498.452 94.4543C498.287 90.6659 495.188 87.9185 491.256 88.0902ZM520.553 82.8713C526.499 82.6116 530.651 86.3701 530.913 92.3644L531.573 107.47L527.449 107.65L526.846 93.8392C526.655 89.4754 523.748 86.7196 519.384 86.9101C514.876 87.1069 512.031 90.1619 512.224 94.5737L512.822 108.289L508.698 108.469L507.631 84.012L511.755 83.832L511.918 87.5724C513.715 84.7073 516.717 83.0388 520.553 82.8713Z" fill="black"/>
<path d="M566.076 73.4328L571.308 85.5159L583.801 89.6751L571.718 94.9073L567.559 107.4L562.327 95.3173L549.833 91.1581L561.917 85.926L566.076 73.4328Z" fill="#FD853A"/>
<path d="M614.658 70.691C624.249 70.2723 631.752 77.0555 632.165 86.5025C632.577 95.9495 625.694 103.361 616.103 103.78L603.347 104.336L601.902 71.248L614.658 70.691ZM615.875 99.6575C622.876 99.3519 627.967 93.7965 627.657 86.6993C627.347 79.602 621.792 74.5115 614.79 74.8172L606.494 75.1794L607.579 100.02L615.875 99.6575ZM657.098 77.4863L661.222 77.3063L662.29 101.763L658.166 101.943L657.973 97.5312C656.045 100.69 652.772 102.755 648.696 102.933C641.694 103.239 636.227 97.9522 635.908 90.6631C635.59 83.3741 640.576 77.6311 647.578 77.3254C651.654 77.1475 655.094 78.9191 657.29 81.8981L657.098 77.4863ZM649.289 98.9193C654.277 98.7016 657.852 94.7499 657.632 89.7147C657.412 84.6795 653.506 81.0544 648.519 81.2721C643.484 81.492 639.909 85.4437 640.128 90.4789C640.348 95.5141 644.254 99.1392 649.289 98.9193ZM676.619 101.714C672.304 101.902 668.874 100.37 666.525 98.3109L668.697 95.2373C670.601 97.0279 673.243 98.1137 676.408 97.9755C679.621 97.8352 682.012 96.4816 681.916 94.2758C681.813 91.926 679.049 91.326 675.802 90.699C671.73 89.8679 666.928 88.8283 666.704 83.6972C666.497 78.9497 670.706 76.3156 675.741 76.0958C679.625 75.9262 682.712 77.2809 684.855 79.0611L682.685 82.1827C680.986 80.6714 678.638 79.7169 675.952 79.8341C673.123 79.9577 670.822 81.1632 670.914 83.2732C671.018 85.6709 673.829 86.2208 677.123 86.8457C681.193 87.6289 685.945 88.6226 686.167 93.7058C686.379 98.5492 682.134 101.473 676.619 101.714ZM702.809 74.914C708.755 74.6544 712.907 78.4128 713.169 84.4071L713.828 99.5127L709.704 99.6928L709.101 85.882C708.911 81.5181 706.004 78.7623 701.64 78.9528C697.132 79.1496 694.287 82.2047 694.479 86.6165L695.078 100.331L690.954 100.511L689.447 65.9843L693.571 65.8043L694.18 79.759C695.972 76.798 698.972 75.0815 702.809 74.914ZM732.311 73.6259C739.312 73.3202 744.828 78.6047 745.146 85.8937C745.464 93.1828 740.43 98.9278 733.429 99.2335C729.353 99.4115 725.912 97.6399 723.716 94.6608L723.909 99.0726L719.785 99.2527L718.277 64.7256L722.401 64.5455L723.034 79.0277C724.962 75.8686 728.235 73.8039 732.311 73.6259ZM732.488 95.2868C737.523 95.067 741.098 91.1153 740.878 86.0801C740.658 81.0449 736.753 77.4198 731.717 77.6396C726.73 77.8574 723.155 81.8091 723.375 86.8443C723.595 91.8795 727.501 95.5046 732.488 95.2868ZM761.928 97.9892C754.495 98.3137 748.644 93.044 748.325 85.7549C748.007 78.4659 753.377 72.7061 760.81 72.3816C768.195 72.0592 774.046 77.329 774.365 84.618C774.683 91.9071 769.313 97.6668 761.928 97.9892ZM761.754 94.009C766.741 93.7913 770.316 89.8396 770.097 84.8044C769.877 79.7692 765.971 76.1441 760.984 76.3618C755.948 76.5817 752.373 80.5334 752.593 85.5686C752.813 90.6038 756.719 94.2289 761.754 94.009ZM798.769 71.3008L802.893 71.1208L803.961 95.5775L799.837 95.7575L799.644 91.3457C797.716 94.5048 794.443 96.5696 790.367 96.7475C783.366 97.0532 777.898 91.7667 777.58 84.4776C777.261 77.1886 782.248 71.4456 789.249 71.1399C793.325 70.962 796.766 72.7336 798.962 75.7126L798.769 71.3008ZM790.961 92.7338C795.948 92.5161 799.523 88.5644 799.303 83.5292C799.083 78.494 795.177 74.8689 790.19 75.0866C785.155 75.3065 781.58 79.2582 781.8 84.2934C782.02 89.3286 785.925 92.9537 790.961 92.7338ZM821.641 69.9179L822.456 69.8823L822.642 74.1502L821.827 74.1858C816.648 74.4119 813.626 77.811 813.847 82.8942L814.381 95.1225L810.257 95.3026L809.189 70.8459L813.314 70.6658L813.498 74.8858C815.192 71.881 817.996 70.077 821.641 69.9179ZM844.892 59.1975L849.016 59.0174L850.524 93.5445L846.399 93.7246L846.207 89.3128C844.279 92.4719 841.006 94.5366 836.93 94.7146C829.928 95.0203 824.461 89.7337 824.142 82.4447C823.824 75.1556 828.81 69.4127 835.812 69.107C839.888 68.929 843.328 70.7006 845.524 73.6797L844.892 59.1975ZM837.523 90.7009C842.51 90.4831 846.085 86.5314 845.866 81.4962C845.646 76.461 841.74 72.8359 836.753 73.0537C831.717 73.2735 828.142 77.2252 828.362 82.2604C828.582 87.2956 832.488 90.9207 837.523 90.7009Z" fill="black"/>
<path d="M884.772 59.5182L890.004 71.6014L902.497 75.7605L890.414 80.9927L886.255 93.4859L881.023 81.4027L868.53 77.2436L880.613 72.0114L884.772 59.5182Z" fill="#FD853A"/>
<path d="M959.825 55.6208L964.381 55.4218L955.276 88.9709L950.816 89.1657L941.452 62.8611L934.416 89.8817L929.956 90.0764L917.961 57.4486L922.613 57.2455L932.052 84.1714L939.253 56.519L943.185 56.3473L952.769 83.2669L959.825 55.6208ZM970.612 58.8974C969.03 58.9665 967.778 57.8199 967.711 56.2854C967.642 54.7029 968.791 53.4997 970.374 53.4306C971.908 53.3636 973.157 54.4621 973.226 56.0446C973.293 57.5792 972.147 58.8304 970.612 58.8974ZM969.832 88.3354L968.764 63.8787L972.888 63.6987L973.956 88.1554L969.832 88.3354ZM991.595 62.4976L992.41 62.462L992.596 66.7299L991.781 66.7655C986.602 66.9916 983.579 70.3907 983.801 75.4738L984.335 87.7022L980.211 87.8823L979.143 63.4256L983.267 63.2455L983.452 67.4655C985.146 64.4607 987.95 62.6567 991.595 62.4976ZM1019.61 73.9105C1019.63 74.486 1019.61 75.1594 1019.59 75.737L998.539 76.6561C999.541 80.8884 1003.17 83.6608 1007.92 83.4535C1011.51 83.2965 1014.51 81.4361 1015.99 79.1132L1018.93 81.4353C1016.62 84.803 1012.69 87.0409 1007.94 87.2482C1000.27 87.5832 994.316 82.2697 993.996 74.9326C993.68 67.6915 998.956 61.984 1006.29 61.6636C1013.58 61.3454 1019.29 66.5735 1019.61 73.9105ZM1006.41 65.4541C1002.14 65.6405 998.913 68.7122 998.328 72.9178L1015.16 72.1829C1014.21 67.9964 1010.73 65.2657 1006.41 65.4541ZM1032.59 54.2216C1030.09 54.3305 1028.7 55.4963 1028.82 58.1337L1028.95 61.2508L1036 60.943L1036.17 64.6834L1029.12 64.9912L1030.02 85.7075L1025.9 85.8875L1024.99 65.1713L1020.53 65.366L1020.37 61.6256L1024.83 61.4308L1024.68 58.0261C1024.48 53.4225 1026.81 50.6782 1031.56 50.4709C1033.28 50.3955 1034.5 50.6789 1035.82 51.2937L1035.98 54.9382C1034.95 54.4547 1033.93 54.163 1032.59 54.2216ZM1052.28 59.8478L1053.1 59.8122L1053.28 64.0802L1052.47 64.1158C1047.29 64.3419 1044.27 67.741 1044.49 72.8241L1045.02 85.0525L1040.9 85.2325L1039.83 60.7758L1043.96 60.5958L1044.14 64.8158C1045.83 61.811 1048.64 60.007 1052.28 59.8478ZM1075.97 59.1978L1080.1 59.0178L1081.17 83.4745L1077.04 83.6545L1076.85 79.2427C1074.92 82.4019 1071.65 84.4666 1067.57 84.6446C1060.57 84.9502 1055.1 79.6637 1054.78 72.3747C1054.47 65.0856 1059.45 59.3426 1066.45 59.0369C1070.53 58.859 1073.97 60.6306 1076.17 63.6096L1075.97 59.1978ZM1068.17 80.6308C1073.15 80.4131 1076.73 76.4614 1076.51 71.4262C1076.29 66.391 1072.38 62.7659 1067.39 62.9837C1062.36 63.2035 1058.78 67.1552 1059 72.1904C1059.22 77.2256 1063.13 80.8507 1068.17 80.6308ZM1115.57 56.8923C1121.18 56.6474 1124.99 60.1328 1125.23 65.7434L1125.92 81.5204L1121.8 81.7005L1121.16 67.0744C1120.99 63.1901 1118.38 60.7574 1114.5 60.927C1110.52 61.1008 1107.95 63.8076 1108.12 67.7398L1108.75 82.27L1104.63 82.45L1103.99 67.824C1103.82 63.9397 1101.22 61.507 1097.33 61.6765C1093.35 61.8503 1090.78 64.5571 1090.95 68.4894L1091.59 83.0195L1087.46 83.1996L1086.39 58.7429L1090.52 58.5628L1090.66 61.8717C1092.33 59.3006 1095.05 57.7885 1098.5 57.6377C1102.34 57.4702 1105.34 59.1168 1106.91 62.0751C1108.6 58.9265 1111.64 57.064 1115.57 56.8923ZM1155.33 67.9847C1155.36 68.5601 1155.34 69.2336 1155.32 69.8111L1134.26 70.7303C1135.26 74.9626 1138.89 77.735 1143.64 77.5277C1147.24 77.3707 1150.23 75.5103 1151.72 73.1874L1154.65 75.5095C1152.35 78.8772 1148.41 81.1151 1143.66 81.3224C1135.99 81.6574 1130.04 76.3438 1129.72 69.0068C1129.4 61.7657 1134.68 56.0581 1142.02 55.7378C1149.31 55.4196 1155.01 60.6477 1155.33 67.9847ZM1142.13 59.5283C1137.87 59.7146 1134.64 62.7864 1134.05 66.9919L1150.88 66.257C1149.93 62.0705 1146.45 59.3398 1142.13 59.5283Z" fill="black"/>
<path d="M1188.48 46.258L1193.72 58.3411L1206.21 62.5003L1194.13 67.7324L1189.97 80.2256L1184.73 68.1425L1172.24 63.9833L1184.32 58.7512L1188.48 46.258Z" fill="#FD853A"/>
<path d="M1238.49 77.1823C1230.86 77.5152 1224.81 72.0619 1224.48 64.5331L1223.59 44.1046L1227.95 43.914L1228.84 64.2467C1229.07 69.4257 1233.12 73.1884 1238.3 72.9623C1243.53 72.7341 1247.24 68.6322 1247.02 63.4532L1246.13 43.1205L1250.49 42.93L1251.38 63.3585C1251.71 70.8874 1246.16 76.8473 1238.49 77.1823ZM1265.93 75.9839C1261.62 76.1723 1258.19 74.6405 1255.84 72.581L1258.01 69.5073C1259.92 71.2979 1262.56 72.3837 1265.72 72.2456C1268.94 72.1053 1271.33 70.7517 1271.23 68.5458C1271.13 66.196 1268.36 65.5961 1265.12 64.9691C1261.04 64.1379 1256.24 63.0984 1256.02 57.9672C1255.81 53.2198 1260.02 50.5857 1265.06 50.3658C1268.94 50.1962 1272.03 51.5509 1274.17 53.3311L1272 56.4527C1270.3 54.9414 1267.95 53.9869 1265.27 54.1042C1262.44 54.2277 1260.14 55.4332 1260.23 57.5432C1260.33 59.9409 1263.14 60.4909 1266.44 61.1158C1270.51 61.899 1275.26 62.8927 1275.48 67.9758C1275.69 72.8192 1271.45 75.7431 1265.93 75.9839ZM1303.76 61.5042C1303.79 62.0796 1303.77 62.7531 1303.74 63.3306L1282.69 64.2498C1283.69 68.4821 1287.32 71.2545 1292.07 71.0472C1295.67 70.8902 1298.66 69.0298 1300.14 66.7069L1303.08 69.029C1300.78 72.3967 1296.84 74.6346 1292.09 74.8419C1284.42 75.1769 1278.47 69.8633 1278.15 62.5263C1277.83 55.2852 1283.11 49.5776 1290.45 49.2573C1297.73 48.9391 1303.44 54.1672 1303.76 61.5042ZM1290.56 53.0478C1286.29 53.2341 1283.07 56.3059 1282.48 60.5114L1299.31 59.7765C1298.36 55.5901 1294.88 52.8594 1290.56 53.0478ZM1320.25 48.1482L1321.06 48.1126L1321.25 52.3806L1320.44 52.4162C1315.26 52.6423 1312.23 56.0414 1312.46 61.1245L1312.99 73.3529L1308.87 73.5329L1307.8 49.0762L1311.92 48.8962L1312.11 53.1162C1313.8 50.1114 1316.6 48.3074 1320.25 48.1482ZM1356.54 71.4514L1346.09 58.7432L1341.25 58.9547L1341.82 72.0942L1337.41 72.2868L1335.96 39.1983L1349.39 38.6121C1355.24 38.3566 1359.89 42.4778 1360.14 48.2323C1360.37 53.6032 1356.57 57.8531 1351.22 58.4712L1361.86 71.219L1356.54 71.4514ZM1340.55 43.1297L1341.08 55.1183L1350 54.7289C1353.35 54.5823 1355.78 51.9298 1355.63 48.4771C1355.48 45.0244 1352.83 42.5937 1349.47 42.7403L1340.55 43.1297ZM1388.97 57.7838C1389 58.3593 1388.98 59.0327 1388.95 59.6103L1367.9 60.5294C1368.9 64.7617 1372.53 67.5341 1377.28 67.3268C1380.88 67.1698 1383.87 65.3094 1385.35 62.9865L1388.29 65.3086C1385.99 68.6763 1382.05 70.9142 1377.3 71.1215C1369.63 71.4565 1363.68 66.143 1363.36 58.8059C1363.04 51.5648 1368.32 45.8573 1375.66 45.5369C1382.95 45.2187 1388.65 50.4468 1388.97 57.7838ZM1375.77 49.3274C1371.51 49.5138 1368.28 52.5855 1367.69 56.7911L1384.52 56.0562C1383.57 51.8697 1380.09 49.139 1375.77 49.3274ZM1402.11 70.0384C1397.79 70.2268 1394.36 68.695 1392.02 66.6354L1394.19 63.5617C1396.09 65.3524 1398.73 66.4382 1401.9 66.3C1405.11 66.1597 1407.5 64.8061 1407.41 62.6002C1407.3 60.2505 1404.54 59.6505 1401.29 59.0235C1397.22 58.1924 1392.42 57.1528 1392.19 52.0217C1391.99 47.2742 1396.2 44.6401 1401.23 44.4203C1405.12 44.2507 1408.2 45.6054 1410.35 47.3856L1408.18 50.5072C1406.48 48.9959 1404.13 48.0414 1401.44 48.1586C1398.61 48.2822 1396.31 49.4877 1396.4 51.5977C1396.51 53.9954 1399.32 54.5453 1402.61 55.1702C1406.68 55.9534 1411.44 56.9471 1411.66 62.0303C1411.87 66.8737 1407.62 69.7976 1402.11 70.0384ZM1439.94 55.5586C1439.96 56.1341 1439.94 56.8075 1439.92 57.3851L1418.87 58.3042C1419.87 62.5366 1423.5 65.3089 1428.24 65.1017C1431.84 64.9446 1434.83 63.0843 1436.32 60.7613L1439.25 63.0835C1436.95 66.4512 1433.01 68.6891 1428.27 68.8963C1420.59 69.2313 1414.64 63.9178 1414.32 56.5808C1414.01 49.3397 1419.28 43.6321 1426.62 43.3118C1433.91 42.9935 1439.62 48.2216 1439.94 55.5586ZM1426.74 47.1023C1422.47 47.2886 1419.24 50.3604 1418.66 54.5659L1435.49 53.831C1434.54 49.6445 1431.05 46.9138 1426.74 47.1023ZM1464.21 42.2471L1468.33 42.0671L1469.4 66.5238L1465.28 66.7038L1465.08 62.292C1463.16 65.4512 1459.88 67.5159 1455.81 67.6939C1448.81 67.9995 1443.34 62.713 1443.02 55.424C1442.7 48.1349 1447.69 42.3919 1454.69 42.0862C1458.77 41.9083 1462.21 43.6799 1464.4 46.6589L1464.21 42.2471ZM1456.4 63.6801C1461.39 63.4624 1464.96 59.5107 1464.74 54.4755C1464.52 49.4403 1460.62 45.8152 1455.63 46.033C1450.6 46.2528 1447.02 50.2045 1447.24 55.2397C1447.46 60.2749 1451.37 63.9 1456.4 63.6801ZM1487.08 40.8642L1487.9 40.8286L1488.08 45.0965L1487.27 45.1321C1482.09 45.3582 1479.07 48.7573 1479.29 53.8405L1479.82 66.0688L1475.7 66.2489L1474.63 41.7922L1478.75 41.6121L1478.94 45.8321C1480.63 42.8273 1483.44 41.0233 1487.08 40.8642ZM1503.09 65.6295C1495.66 65.954 1489.81 60.6842 1489.49 53.3952C1489.17 46.1061 1494.54 40.3464 1501.97 40.0219C1506.81 39.8104 1511.04 42.0281 1513.41 45.6722L1509.91 47.9872C1508.31 45.4625 1505.45 43.8576 1502.15 44.0021C1497.11 44.2219 1493.53 48.1736 1493.75 53.2088C1493.97 58.244 1497.88 61.8691 1502.92 61.6493C1506.22 61.5048 1508.93 59.657 1510.3 57.0026L1513.99 59.0035C1511.95 62.8402 1507.93 65.418 1503.09 65.6295ZM1530.37 38.782C1536.31 38.5224 1540.47 42.2809 1540.73 48.2752L1541.39 63.3808L1537.26 63.5608L1536.66 49.75C1536.47 45.3862 1533.56 42.6303 1529.2 42.8209C1524.69 43.0177 1521.85 46.0727 1522.04 50.4845L1522.64 64.1994L1518.51 64.3795L1517.01 29.8524L1521.13 29.6723L1521.74 43.627C1523.53 40.666 1526.53 38.9495 1530.37 38.782Z" fill="black"/>
</g>
<defs>
<clipPath id="clip0_64_1463">
<path d="M0 24.0811C0 10.8262 10.7452 0.0810547 24 0.0810547H1440V123.081C1440 136.336 1429.25 147.081 1416 147.081H0V24.0811Z" fill="white"/>
</clipPath>
</defs>
</svg>
